<svg width="298" height="40" viewBox="0 0 298 40" fill="none" xmlns="http://www.w3.org/2000/svg">
<g clip-path="url(#clip0_22_1769)">
<path d="M255.285 31.8673C256.99 30.9326 258.487 30.0344 260.055 29.2829C260.765 28.9519 261.541 28.7626 262.333 28.727C263.777 28.6597 264.187 29.2096 263.732 30.4927C262.84 32.9793 261.78 35.3804 258.728 36.1747C256.346 36.7856 255.76 36.4191 255.474 34.0179C255.144 34.1785 254.795 34.2996 254.433 34.3784C253.782 34.4273 253.099 34.3784 252.435 34.3784C252.624 33.7674 252.611 32.9793 253.027 32.5455C254.329 31.2014 255.799 29.9917 257.211 28.727L256.919 28.3909C255.858 29.188 254.753 29.9304 253.606 30.6148C252.305 31.3236 251.003 30.9753 249.435 29.9611C251.055 29.2891 252.35 28.7025 253.684 28.2137C254.713 27.8349 255.077 27.3951 254.674 26.277C254.348 25.385 254.498 24.3402 254.439 23.3077L253.196 23.5276L255.311 20.7172L254.719 20.2345C253.314 21.5603 251.895 22.8678 250.515 24.2119C249.917 24.8229 249.513 25.6049 248.823 26.0448C248.077 26.4716 247.218 26.6958 246.344 26.6924C245.921 26.6924 245.505 25.9715 245.088 25.5744L246.168 24.7068L249.507 21.9758C249.897 21.658 250.268 21.322 250.665 21.0165C253.268 19.0003 255.448 16.7397 255.572 13.3C255.583 12.9745 255.677 12.6561 255.845 12.3713C256.209 11.7603 256.639 11.1494 257.036 10.5873L258.838 11.8948L258.702 12.0658C258.808 12.1008 258.916 12.1274 259.027 12.1453C259.958 12.188 261.077 11.4121 261.715 12.7562C262.352 14.1004 261.109 14.4608 260.413 15.0718C259.43 15.9516 258.324 16.7153 257.381 17.7295C258.578 17.1674 259.756 16.5687 260.973 16.0616C262.19 15.5545 263.283 14.803 264.754 15.8722L256.463 19.538L256.782 20.7599L259.801 20.1489L260.107 20.711L256.476 23.8392L260.224 22.5867C259.808 25.0611 256.196 24.1508 256.424 26.8268C258.376 26.0448 260.224 25.3116 262.059 24.609C262.834 24.2631 263.645 23.9968 264.48 23.8148C265.251 23.7664 266.025 23.791 266.79 23.8881C266.387 24.4489 265.901 24.953 265.346 25.385C261.916 27.2973 258.09 28.7331 255.285 31.8673ZM262.3 29.8573L261.923 29.399L257.66 31.8979L260.4 33.1198L262.3 29.8573Z" fill="white"/>
<path d="M232.776 34.0912L236.596 34.6045C237.247 26.5763 237.949 18.7193 238.639 10.5567C237.907 10.6972 237.19 10.9018 236.498 11.1677C233.96 12.3896 231.488 13.7215 228.937 14.9129C228.074 15.2093 227.179 15.4142 226.269 15.5239L226.099 15.1512C226.317 14.8779 226.571 14.6316 226.854 14.418C230.759 12.2247 234.767 10.3429 239.355 9.80521C240.78 9.64025 242.14 10.9172 241.574 12.1697C239.264 17.3079 239.622 22.6417 239.863 28.0243C239.937 30.0883 239.561 32.1448 238.756 34.0668C237.644 36.6818 235.119 37.7998 232.776 34.0912Z" fill="white"/>
<path d="M288.987 17.5096L285.265 22.935L285.74 23.3565C286.308 22.9828 286.906 22.6519 287.529 22.3668C287.998 22.1774 288.72 21.9697 289.033 22.1713C289.454 22.5532 289.721 23.0607 289.788 23.607C289.976 24.5968 290.009 25.6171 290.106 26.6619L287.347 28.6353L287.582 29.0874C288.714 28.0121 290.022 27.7678 291.102 28.7514C291.375 29.008 290.712 30.1689 290.412 31.1281C290.302 31.0548 290.575 31.1586 290.725 31.3419C291.07 31.7818 291.375 32.2645 291.668 32.7288C291.215 33.0738 290.702 33.3425 290.152 33.5231C287.549 33.8897 287.217 33.3581 286.625 30.9143C286.306 29.5946 286.905 28.6964 287.1 27.6028C287.282 27.0119 287.267 26.3825 287.054 25.8004C286.827 25.4155 286.013 25.3422 285.252 25.0551C285.252 28.9897 285.252 32.5639 285.252 36.1441C285.252 36.4374 284.94 36.9262 284.692 36.969C284.341 37.0423 283.664 36.8895 283.56 36.6574C283.124 35.6981 282.499 34.6473 282.577 33.6758C282.844 30.4194 283.287 27.1629 283.879 23.937C284.354 21.0226 286.469 19.092 288.987 17.5096Z" fill="white"/>
<path d="M278.842 24.2974C279.363 24.2974 279.87 24.1202 279.974 24.2546C280.235 24.5968 280.567 25.1466 280.443 25.4766C279.871 27.0396 279.177 28.561 278.367 30.0283C278.068 30.5476 277.189 30.7676 276.578 31.128V29.2463L276.961 29.1485L274.768 27.3156L276.493 25.4827L275.191 24.4379C274.789 25.1136 274.341 25.7646 273.851 26.3869C273.491 26.6779 273.079 26.9074 272.634 27.0651C272.406 26.6313 271.983 26.1914 271.983 25.7576C272.015 25.1303 272.205 24.519 272.536 23.9736C273.636 22.0368 274.873 20.1673 275.92 18.206C276.272 17.5462 276.213 16.6847 276.35 15.8721C278.361 15.9393 278.465 16.1349 277.944 19.4891C279.682 19.153 279.682 19.153 281.048 16.6358C282.35 17.4545 282.454 18.652 282.193 19.8862C282.122 20.108 282 20.3125 281.836 20.4856C281.672 20.6586 281.47 20.796 281.243 20.8882C279.981 21.3037 278.64 21.4992 277.384 21.9207C276.68 22.2462 276.015 22.6415 275.4 23.0999C276.838 23.6803 278.601 22.5256 278.842 24.2974Z" fill="white"/>
<path d="M229.223 24.6701C231 23.6987 232.6 22.7578 234.279 21.9635C234.541 21.8995 234.816 21.8944 235.08 21.9486C235.345 22.0027 235.592 22.1146 235.802 22.2751C235.929 22.4742 236.004 22.6986 236.021 22.9301C236.038 23.1615 235.996 23.3935 235.9 23.607C234.813 25.8981 233.603 28.1465 232.496 30.4315C231.78 31.904 231.13 32.0078 229.991 30.7309C229.874 30.5769 229.726 30.4461 229.555 30.346C227.212 29.3318 227.16 29.2402 227.655 27.67L226.841 25.3116L222.397 26.9368L222.026 26.4053C222.553 25.9654 223.008 25.2749 223.614 25.1161C226.867 24.2791 228.729 22.3545 229.256 19.208C229.448 18.5112 229.719 17.8353 230.063 17.1918H228.989C230.102 15.5422 232.243 14.2775 234.058 14.3997L231.312 17.6378L232.028 18.3588L230.212 20.3994L230.466 20.6499L231.598 20.1428L231.943 20.3017C231.045 21.7191 230.154 23.1366 229.223 24.6701ZM233.713 23.7536L233.251 23.2038L229.301 25.4827V29.7106C232.36 28.3237 231.989 25.4033 233.713 23.7475V23.7536Z" fill="white"/>
<path d="M218.89 19.1653C220.27 24.8901 219.625 30.7737 220.432 36.5535L219.944 36.8162C219.567 36.3274 218.981 35.8875 218.857 35.356C218.406 33.7571 218.129 32.1195 218.03 30.4682C217.985 27.1507 218.187 23.827 218.297 20.5033C218.297 20.0634 218.388 19.6235 218.434 19.1775L218.89 19.1653Z" fill="white"/>
<path d="M283.196 16.8008L288.668 12.7257L287.367 11.3632L287.647 10.8867C288.408 11.1005 289.352 11.1127 289.892 11.5587C290.449 12.0513 291.145 12.3825 291.898 12.5125C292.651 12.6426 293.427 12.566 294.135 12.2919C291.239 15.4262 287.959 17.0269 283.196 16.8008Z" fill="white"/>
<path d="M273.883 29.4907C275.445 31.0486 274.912 32.6005 274.807 34.2135L276.656 32.9915C277.183 34.299 275.718 36.7673 274.397 36.749C274.188 36.7179 273.989 36.6371 273.822 36.5141C273.655 36.3912 273.523 36.2302 273.441 36.0464C273.148 33.9385 272.836 31.8307 273.883 29.4907Z" fill="white"/>
<path d="M296.978 11.3998C297.844 11.5281 298.403 12.298 297.629 13.3244C296.393 15.0107 294.837 16.3304 292.384 16.2143C291.948 16.2143 291.505 16.5992 291.037 16.7397C290.567 16.8848 290.062 16.8955 289.586 16.7702C292.117 15.1939 295.026 14.247 296.978 11.3998Z" fill="white"/>
<path d="M232.516 32.6861C231.045 34.4334 228.67 34.2135 226.711 34.8855L226.516 34.4884L232.099 31.9529L232.516 32.6861Z" fill="white"/>
<path d="M226.991 21.212L226.562 16.9352C227.146 17.2674 227.615 17.7509 227.913 18.3276C228.211 18.9043 228.325 19.5495 228.241 20.1856C228.189 20.6683 227.662 21.1082 227.349 21.5603L226.991 21.212Z" fill="white"/>
<path d="M280.06 34.8916C278.263 34.4151 277.404 32.6555 278.211 31.7513C278.413 31.6922 278.628 31.677 278.837 31.7066C279.047 31.7362 279.247 31.81 279.422 31.9223C279.699 32.8989 279.912 33.8905 280.06 34.8916Z" fill="white"/>
<path d="M224.154 32.9793C222.742 32.0506 223.249 30.4865 222.852 29.234L223.438 29.0324L224.74 32.6982L224.154 32.9793Z" fill="white"/>
</g>
<g clip-path="url(#clip1_22_1769)">
<path d="M175.544 17.9389C176.603 15.5013 174.688 12.8685 172.356 13.1084C172.035 13.1084 171.63 13.2868 171.399 13.153C170.836 12.835 170.053 12.4167 170.002 11.9649C170.024 11.6504 170.129 11.3471 170.306 11.0849C170.483 10.8228 170.725 10.6108 171.01 10.47C172.621 10.2134 173.697 9.23721 174.823 8.23874C175.066 8.02678 175.33 7.73114 175.618 7.68094C176.378 7.59169 177.15 7.61958 177.921 7.60285C177.921 8.26105 178.209 9.1368 177.888 9.53842C176.434 11.3513 177.324 13.3147 177.324 15.2057C177.324 15.4232 177.741 15.8304 177.949 15.8193C178.38 15.8162 178.793 15.6506 179.104 15.3563C179.594 14.6701 180.015 13.9377 180.36 13.1697C181.025 11.7975 181.858 11.4405 183.407 11.4182C184.027 11.4182 184.737 10.7879 185.227 10.2747C185.537 10.0007 185.742 9.62997 185.81 9.22407C185.878 8.81817 185.803 8.40157 185.599 8.04352C185.401 7.67537 185.249 6.86655 185.351 6.81635C185.858 6.57649 186.584 6.25854 186.984 6.45935C187.715 6.84312 188.337 7.40332 188.792 8.08813C189.609 9.3153 189.789 9.45476 191.158 8.89695C191.736 8.64436 192.371 8.54893 192.999 8.6205C193.627 8.69208 194.224 8.92806 194.729 9.30415C195.54 9.86195 195.484 10.2747 194.729 10.7377C193.225 11.6692 191.704 12.5673 190.223 13.4932C189.795 13.761 189.4 14.0901 188.961 14.408C190.335 15.5962 190.319 15.6017 188.787 16.6783C188.272 17.053 187.808 17.4917 187.407 17.9835C186.843 18.6529 187.232 19.0099 187.936 19.0991C188.422 19.1059 188.907 19.1413 189.389 19.2051C189.825 19.316 190.205 19.5796 190.459 19.947C190.555 20.1255 190.099 20.6443 189.817 20.9399C189.536 21.2355 189.175 21.2355 189.029 21.4977C188.804 21.9061 188.668 22.3563 188.629 22.8197C188.561 23.7122 188.629 24.6102 188.573 25.5083C188.505 26.7857 188.37 28.063 188.302 29.3404C188.302 29.8201 188.381 30.3054 188.364 30.7851C188.313 32.4585 188.798 33.0163 190.51 32.8043C191.866 32.6022 193.209 32.3228 194.532 31.9676C195.433 31.7557 196.312 31.4489 197.213 31.2481C198.728 30.9022 199.218 30.0265 198.621 28.6376C198.272 27.8232 197.889 27.0199 197.607 26.1832C197.541 25.8143 197.541 25.4366 197.607 25.0676C197.995 25.1397 198.373 25.2557 198.734 25.4135C199.939 26.1219 201.111 26.8861 202.305 27.6447C202.547 27.7897 202.817 27.8901 203.054 28.0407C204.935 29.2288 204.907 30.7237 202.84 31.633C199.522 33.0944 196.12 34.3718 192.757 35.744C190.133 36.8149 187.812 36.4189 185.998 34.2323C185.435 33.5704 185.117 32.738 185.097 31.8728C185.258 30.1602 185.518 28.458 185.874 26.7745C185.914 26.5346 186.094 26.2669 186.027 26.0772C185.897 25.6446 185.665 25.2488 185.351 24.9226C185.232 24.8166 184.59 25.0565 184.41 25.3019C183.695 26.2669 183.171 27.3881 182.377 28.2861C180.901 29.9596 179.301 31.5381 177.707 33.1056C177.36 33.3869 176.923 33.5371 176.474 33.5295C176.306 33.4901 176.148 33.4173 176.01 33.3157C175.871 33.2141 175.755 33.0856 175.668 32.9382C175.634 32.8128 175.63 32.681 175.658 32.5539C175.685 32.4268 175.743 32.308 175.826 32.2075C177.009 30.8465 178.21 29.5003 179.431 28.169C179.943 27.6112 180.484 27.0534 181.047 26.5514C182.016 25.6645 181.965 25.0063 180.839 24.2588C179.712 23.5114 179.639 22.842 180.608 22.0276C181.577 21.2132 181.847 20.3096 181.825 19.0211C181.825 17.5373 183.053 16.5611 184.219 15.7412C185.142 15.0941 186.167 14.5865 187.097 13.9451C187.361 13.7554 187.457 13.3203 187.626 13.0024C187.266 12.8741 186.866 12.5673 186.556 12.6398C185.361 12.862 184.223 13.3228 183.213 13.9941C182.203 14.6653 181.342 15.533 180.681 16.5444C180.428 17.0885 180.146 17.6192 179.836 18.1342C179.314 18.7061 178.761 19.2498 178.18 19.7629C177.922 19.9591 177.717 20.216 177.583 20.5104C177.341 21.5591 176.705 21.6595 175.843 21.3304C175.623 21.2467 175.426 21.0905 175.201 20.9901C174.007 20.4323 173.652 20.6722 173.641 21.9495C173.546 24.0613 173.63 26.1773 173.894 28.275C174.17 29.9484 174.531 32.0123 173.038 33.6243C172.03 34.7399 171.697 34.6562 170.982 33.3398C170.092 31.7055 170.565 30.0488 170.723 28.42C171.044 25.1234 171.562 21.8491 171.911 18.5525C171.968 17.9947 171.534 17.4369 171.421 16.8512C171.326 16.3827 171.202 15.5794 171.393 15.4734C171.642 15.3316 171.916 15.2412 172.201 15.2076C172.486 15.1741 172.774 15.1981 173.049 15.2782C173.662 15.6561 174.201 16.1419 174.638 16.7118C174.963 17.1037 175.265 17.5134 175.544 17.9389ZM186.015 19.0545C185.001 18.8872 183.706 19.2832 183.244 20.0195C183.133 20.1906 183.062 20.3839 183.036 20.5855C183.009 20.7871 183.029 20.992 183.092 21.1853C183.243 21.3212 183.422 21.423 183.616 21.4837C183.811 21.5443 184.016 21.5624 184.219 21.5367C185.142 21.4419 185.987 20.1924 186.021 19.0545H186.015Z" fill="white"/>
<path d="M32.7533 32.1127C31.9442 32.6387 31.097 33.1048 30.2186 33.5072C27.9656 34.355 25.6844 35.1471 23.375 35.8276C23.0618 35.8795 22.7412 35.8681 22.4324 35.7943C22.1237 35.7205 21.8332 35.5858 21.5783 35.3981C19.8885 34.1096 18.2832 32.7876 17.7819 30.4672C17.3595 28.4925 16.447 26.6239 15.726 24.7218C15.6415 24.4987 15.2642 24.164 15.2022 24.164C14.9093 24.3202 14.5488 24.5489 14.4587 24.8334C14.0194 26.2 13.6307 27.6224 13.2702 28.989C13.0168 29.9596 12.8084 30.9469 12.6394 31.9342C12.3127 33.853 10.7299 34.7232 9.41756 35.8388C8.31564 36.8314 6.96996 37.5202 5.51501 37.8363C4.06005 38.1525 2.54677 38.085 1.12643 37.6405C0.929694 37.5598 0.741103 37.4608 0.563177 37.3449C0.8786 37.1887 1.07575 36.999 1.25599 37.0158C4.68058 37.3002 6.74211 35.1806 8.30232 32.6984C9.36688 31.025 9.81748 28.9332 10.4483 26.9976C10.5666 26.6295 10.2512 26.1219 10.1329 25.6812C9.68629 25.7696 9.25787 25.9318 8.86558 26.1609C8.03759 26.8638 7.28282 27.6558 6.52805 28.4368C4.9622 30.0544 3.34003 30.0544 1.79671 28.4033C1.37172 27.9696 0.972991 27.5114 0.602609 27.0311C-0.349294 25.7091 -0.276077 25.2238 1.31794 24.8445C4.25813 24.1361 6.78716 22.697 9.33871 21.1798C9.8709 20.8917 10.3074 20.457 10.5953 19.9284C10.8832 19.3997 11.0102 18.7997 10.9609 18.2011C10.9609 15.6798 10.9609 13.1809 10.882 10.6429C10.882 10.1464 10.3188 9.64999 9.94702 9.19817C9.24858 8.33915 9.38377 7.75346 10.5103 7.65306C13.9518 7.32395 16.8469 5.53899 19.9505 4.30624C20.8913 3.98819 21.8745 3.80963 22.8681 3.77633C23.2286 3.74844 23.9383 4.11101 23.9327 4.27278C23.9332 4.78023 23.7424 5.2696 23.3976 5.64497C21.2459 7.50245 19.0098 9.27626 16.8413 11.1226C16.4245 11.4796 15.8218 12.3553 15.9063 12.4502C16.3963 12.9745 17.0328 13.6717 17.6749 13.6941C19.0905 13.7077 20.5034 13.5674 21.8881 13.2757C22.5245 13.1641 23.0427 13.2088 23.1159 13.8056C23.1125 14.036 23.0546 14.2625 22.947 14.4668C22.8395 14.6712 22.6851 14.8478 22.4964 14.9826C20.9418 15.9308 19.3252 16.7731 17.7312 17.6545C17.2395 17.8646 16.8458 18.2506 16.6286 18.7355C16.4115 19.2204 16.3869 19.7685 16.5597 20.2705C17.2612 23.3978 19.0768 26.1701 21.674 28.0798C23.0089 29.0448 24.2481 30.2162 25.7126 30.9078C27.7347 31.8561 29.8976 32.6984 32.2182 31.7055C32.3083 31.6664 32.4435 31.739 32.5561 31.7557L32.7533 32.1127ZM16.8413 16.8903C17.3201 16.2376 17.8382 15.8304 17.7707 15.5627C17.5867 15.1266 17.2366 14.7799 16.7962 14.5977C16.6667 14.5363 15.9908 15.1109 16.002 15.3675C16.0246 15.7579 16.4188 16.1484 16.8413 16.868V16.8903Z" fill="white"/>
<path d="M55.5146 19.5845C55.0583 20.1813 54.5908 20.767 54.1515 21.3694C53.3066 22.5352 53.2672 24.9282 54.0726 26.055C54.1949 26.2089 54.3621 26.3219 54.5514 26.3785C55.385 26.6407 57.4634 25.4804 57.6155 24.6158C57.6312 24.2644 57.5346 23.9169 57.3395 23.6229C57.103 23.2046 56.7256 22.8699 56.4834 22.4516C56.4269 22.3378 56.3943 22.214 56.3875 22.0874C56.3807 21.9609 56.3999 21.8343 56.444 21.7153C56.489 21.6093 56.8608 21.6316 57.0917 21.6149C57.1723 21.6252 57.2494 21.6539 57.317 21.6985L62.0427 23.9744C61.0908 25.7259 59.2264 26.3618 57.424 27.1483C56.8608 27.3881 56.2975 27.5889 55.7343 27.7842C54.1233 28.342 53.7178 28.8998 53.7516 30.6345C53.7929 32.2298 53.8267 33.8251 53.853 35.4205C53.876 35.7411 53.859 36.0634 53.8023 36.3799C53.5094 37.6461 52.6758 38.3378 51.7295 38.0979C51.1098 37.9646 50.5653 37.6012 50.208 37.0824C49.8508 36.5636 49.7079 35.9289 49.8088 35.3089C50.0397 34.5426 50.2277 33.7642 50.3721 32.9773C50.5185 31.7111 50.2369 31.4322 48.9752 31.5661C47.6177 31.7111 46.3842 31.6441 45.4154 30.1771C45.9787 29.954 46.4236 29.7141 46.9193 29.5524C49.5384 28.7213 50.1749 28.275 49.3638 25.7816C49.2681 25.4804 49.3638 25.1346 49.2737 24.8222C49.0484 23.8963 48.7837 22.9815 48.5077 21.944C48.768 21.3783 48.9754 20.7901 49.1273 20.1869C49.1228 19.9939 49.0743 19.8043 48.9856 19.6324C48.8969 19.4605 48.7701 19.3106 48.6147 19.194C47.5614 18.4465 45.4605 19.3725 45.3197 20.6499C45.1995 21.8081 45.1413 22.9718 45.145 24.1361C45.1965 27.3215 44.3077 30.4524 42.5879 33.1446C42.0246 34.0315 40.8981 33.9144 40.194 32.9215C39.9247 32.4758 39.794 31.9615 39.818 31.4427C39.842 30.9239 40.0198 30.4236 40.3292 30.0042C42.8751 27.1873 43.0103 23.7512 42.8132 20.2706C42.7287 18.8091 42.3682 17.3644 42.188 15.903C42.184 15.7497 42.212 15.5974 42.2701 15.4553C42.3282 15.3133 42.4153 15.1846 42.5259 15.0774C44.2889 13.365 44.3509 11.4573 43.3764 9.33762C43.1436 8.69141 42.9738 8.02458 42.8695 7.34627C43.5679 7.51919 44.2889 7.64191 44.9704 7.90408C45.6195 8.13439 46.244 8.42773 46.8348 8.77982C47.0802 8.90602 47.2906 9.08993 47.4475 9.31542C47.6044 9.5409 47.703 9.80108 47.7347 10.0731C47.7664 10.3451 47.7302 10.6207 47.6293 10.8757C47.5283 11.1306 47.3658 11.3571 47.1559 11.5354C46.4743 12.1601 45.6125 12.584 44.9479 13.2088C44.513 13.5852 44.2458 14.1164 44.2044 14.6869C44.2382 15.0663 44.8803 15.5515 45.3309 15.6966C46.1758 15.9643 46.9362 16.1763 47.308 17.1022C47.3993 17.2421 47.5256 17.3562 47.6746 17.4335C47.8237 17.5107 47.9903 17.5484 48.1585 17.5429C48.3391 17.474 48.5021 17.3662 48.6355 17.2273C48.769 17.0883 48.8696 16.9218 48.9301 16.7397C49.2174 15.2057 49.3976 14.3076 47.7135 13.5044C47.6234 13.4598 47.5783 13.3203 47.522 13.2367C47.4656 13.153 47.522 13.0024 47.5839 12.9857C49.5384 12.1434 49.606 10.5481 49.4089 8.76866C49.3498 7.81126 49.3668 6.85075 49.4596 5.89598C49.499 4.99792 51.0761 4.22258 51.9886 4.65209C52.4964 4.86483 52.9451 5.19527 53.297 5.61559C53.6489 6.03591 53.8937 6.53382 54.0107 7.06737C54.2811 8.27222 54.6246 8.43398 55.8018 8.03237C56.4739 7.75408 57.1669 7.52841 57.8746 7.35742C58.8491 7.19566 59.3335 7.80924 58.8322 8.62921C58.038 9.92889 57.0748 11.1226 56.1849 12.3609C55.8244 12.8685 55.4639 13.3705 55.0978 13.8726L55.34 14.3188C56.1398 14.118 56.9453 13.9228 57.7451 13.7052C58.3069 13.5034 58.883 13.3431 59.4686 13.2255C59.7446 13.2255 60.0601 13.51 60.3586 13.6718C60.1671 13.9897 60.0488 14.4248 59.7615 14.5977C59.2462 14.9249 58.6728 15.1521 58.0718 15.2671C57.1655 15.3761 56.2974 15.6925 55.5358 16.191C54.7743 16.6896 54.1403 17.3567 53.684 18.1397C53.5216 18.5965 53.4416 19.0779 53.4474 19.5621C53.9149 19.5621 54.3768 19.5287 54.8443 19.4896C54.9913 19.465 55.1349 19.4238 55.2724 19.3669L55.5146 19.5845ZM55.8413 10.3863C55.1879 9.96794 54.7148 9.4715 54.4951 9.56632C54.0405 9.80873 53.6888 10.2046 53.5038 10.6819C53.4418 10.8158 54.1346 11.5186 54.3712 11.4684C54.8161 11.3513 55.1823 10.9162 55.8413 10.3863Z" fill="white"/>
<path d="M150.992 23.9409C149.381 22.9368 149.206 22.6691 150.485 21.4475C151.764 20.2259 153.301 19.4785 154.76 18.5413C155.442 18.1007 156.151 17.7102 156.85 17.2974L156.67 16.8847C156.358 16.905 156.052 16.9669 155.757 17.0687C153.363 18.2513 150.992 19.4673 148.598 20.6443C148.166 20.866 147.696 21.006 147.213 21.057C146.786 21.0404 146.364 20.9692 145.956 20.8451C146.159 20.555 146.373 20.2873 146.559 19.9693C146.655 19.8076 146.796 19.5565 146.734 19.4394C146.109 18.2736 146.835 17.4704 147.421 16.589C147.562 16.2493 147.635 15.8855 147.635 15.5181C147.275 15.524 146.916 15.567 146.565 15.6463C146.082 15.8304 145.61 16.0408 145.151 16.2767C145.878 17.7716 145.427 19.2944 144.723 20.7391C144.374 21.2436 143.951 21.693 143.467 22.0722C143.123 21.665 142.628 21.3025 142.47 20.8339C142.222 20.1579 142.147 19.4317 142.25 18.7198C142.584 17.1808 142.491 15.5808 141.98 14.0901C141.862 13.7331 142.194 13.2199 142.318 12.7848C142.691 12.9809 143.035 13.2289 143.337 13.5211C143.762 14.1261 144.153 14.7537 144.509 15.4009L144.948 15.3451C145.119 14.9069 145.21 14.4425 145.219 13.9729C144.796 11.7417 145.038 9.34319 143.349 7.47455C143.269 7.35212 143.222 7.21159 143.212 7.0662C143.202 6.9208 143.23 6.77531 143.292 6.64342C143.461 6.48166 143.856 6.52628 144.171 6.53186C144.336 6.53491 144.495 6.59849 144.616 6.71036C146.086 8.28894 147.511 9.91214 147.432 12.2382C147.398 12.9801 147.517 13.7164 148.249 13.6717C148.654 13.6717 149.105 12.8016 149.336 12.2493C149.443 11.9872 149.094 11.5298 148.914 11.1784C148.764 10.9215 148.71 10.6209 148.76 10.3286C148.81 10.0363 148.962 9.77058 149.19 9.57747C150.261 8.33131 151.224 6.99706 152.068 5.58917C152.366 5.07042 152.068 4.23371 152.118 3.54761C152.146 3.18465 152.193 2.82341 152.259 2.46548C152.625 2.56031 153.121 2.538 153.318 2.76669C154.036 3.49634 154.621 4.34373 155.047 5.27123C155.216 5.76767 154.546 6.5207 154.343 7.18449C154.185 7.56656 154.171 7.99231 154.304 8.38377C154.907 9.35434 155.639 10.2412 156.444 11.3234C157.745 9.81731 158.517 7.80365 159.413 5.85692L159.103 5.54455C158.54 5.87365 157.976 6.21392 157.413 6.50955C157.227 6.60996 156.85 6.67689 156.771 6.57649C156.685 6.4751 156.621 6.35763 156.582 6.2311C156.544 6.10458 156.531 5.97161 156.546 5.84018C156.827 4.45125 158.832 2.94519 160.207 3.05117C161.998 3.1962 162.725 4.52378 161.897 6.07447C161.294 7.19007 160.804 8.40608 160.207 9.52168C159.48 10.8102 158.658 12.0485 157.864 13.298C157.554 13.7889 157.188 14.2463 156.85 14.7148L157.148 15.0718C157.722 14.7489 158.265 14.3756 158.771 13.9562C159.269 13.3909 159.954 13.0202 160.704 12.9108C161.454 12.8014 162.218 12.9605 162.86 13.3594C164.082 14.0008 164.335 14.7762 163.35 15.7021C161.35 17.5875 159.249 19.3613 156.371 19.8243C155.859 19.9452 155.355 20.098 154.862 20.2817C153.335 20.7279 153.307 20.9287 154.225 22.2061C154.365 22.4334 154.456 22.6872 154.492 22.9514C154.528 23.2155 154.508 23.4841 154.433 23.7401C154.123 24.4878 153.592 25.1253 152.909 25.5691C152.227 26.013 151.425 26.2426 150.609 26.2279C149.911 26.1944 149.764 25.8095 150.096 25.2517C150.327 24.8612 150.648 24.4317 150.992 23.9409ZM152.969 12.7848C153.217 12.0206 153.656 11.2453 153.662 10.4699C153.662 9.80058 153.177 9.12564 152.907 8.45628C152.328 8.76607 151.777 9.12635 151.262 9.53284C151.173 9.68293 151.122 9.85243 151.114 10.0265C151.106 10.2006 151.142 10.3739 151.217 10.5313C151.662 11.262 152.265 11.9091 152.969 12.796V12.7848ZM155.368 13.6717L155.104 13.3705C154.698 13.6661 154.31 13.9953 153.876 14.2518C153.385 14.6438 152.82 14.9341 152.214 15.1053C150.603 15.3005 150.592 15.2336 151.33 16.6839C151.448 16.9181 151.589 17.1468 151.775 17.4704C153.376 16.6638 154.645 15.3335 155.368 13.7052V13.6717Z" fill="white"/>
<path d="M120.058 33.4905L118.853 32.0513C119.223 31.9532 119.599 31.8769 119.979 31.8226C121.213 31.7724 121.872 31.2314 122.057 30.0209C122.091 29.7755 122.029 29.3795 121.866 29.2735C121.737 29.1933 121.591 29.144 121.439 29.1295C121.288 29.115 121.135 29.1356 120.993 29.1898C119.376 30.4393 117.653 31.5939 116.262 33.0609C114.335 35.0858 112.724 37.4062 110.854 39.4924C110.477 39.9163 109.553 40.0168 108.889 40C108.224 39.9833 108.111 38.996 108.641 38.3545C110.33 36.2795 112.11 34.2435 113.71 32.096C114.724 30.7516 115.518 29.24 116.526 27.5945C115.636 27.5945 114.836 27.5945 114.065 27.5945C112.73 27.5945 111.755 26.3339 112.471 25.2127C113.437 23.8689 114.489 22.5871 115.619 21.375L115.986 21.6372C115.586 22.803 115.129 23.9576 114.803 25.1457C114.736 25.6743 114.746 26.2095 114.831 26.7355L116.29 26.557C117.377 26.4343 118.317 26.094 118.819 24.984C117.985 25.0398 117.202 25.1402 116.425 25.1178C116.138 25.1178 115.862 24.8166 115.574 24.6549C115.774 24.3919 116.011 24.1589 116.278 23.9632C117.816 23.1432 119.658 22.8476 120.858 21.4308C121.714 20.4323 122.429 21.2467 123.066 21.6372C123.28 21.7655 123.099 22.5296 123.099 23.3385C123.691 24.3369 123.038 25.7649 121.286 26.5179C119.84 27.2957 118.618 28.4266 117.737 29.8034C118.12 29.7553 118.498 29.6694 118.864 29.5468C119.466 29.2344 119.99 28.7993 120.627 28.5149C122.221 27.773 123.967 28.5149 124.288 30.2385C124.29 30.5758 124.212 30.9088 124.059 31.2104C123.906 31.5119 123.684 31.7733 123.409 31.9732C122.333 32.6538 122.531 33.0888 123.347 33.7415C123.841 34.1001 124.264 34.5442 124.598 35.0523C125.437 36.4914 124.671 38.4884 123.071 39.3028C122.547 38.215 121.99 37.1385 121.505 36.034C121.021 34.9296 120.768 34.8627 119.861 35.5487C119.335 35.8523 118.746 36.0314 118.14 36.0721C117.533 36.1127 116.925 36.0138 116.363 35.783L120.058 33.4905Z" fill="white"/>
<path d="M111.057 18.6641C110.892 18.9212 110.777 19.207 110.719 19.5063C110.706 19.8936 110.823 20.2743 111.051 20.5885C111.202 20.6671 111.369 20.7082 111.539 20.7082C111.709 20.7082 111.876 20.6671 112.026 20.5885C113.306 19.9012 114.522 19.1023 115.659 18.2011C118.092 16.0535 121.094 14.9268 123.933 13.5434C125.482 12.7904 127.268 12.4836 129.002 12.121C129.34 12.0485 129.921 12.5952 130.219 12.98C130.596 13.4709 130.782 14.0957 131.092 14.6535C131.229 14.8261 131.319 15.0305 131.354 15.2473C131.389 15.4642 131.367 15.6862 131.291 15.8924C131.215 16.0986 131.087 16.2821 130.919 16.4255C130.751 16.5689 130.549 16.6674 130.332 16.7117C127.769 17.37 125.184 17.9501 122.621 18.6139C121.355 19.0041 120.069 19.3281 118.768 19.5844C121.173 18.0226 123.685 16.6615 125.781 14.7092C123.049 16.3213 119.664 16.444 117.219 18.7589C115.259 20.6108 112.781 21.916 110.691 23.6508C110.06 24.1696 109.874 25.274 109.604 26.1498C109.232 27.349 108.725 28.381 107.424 28.8328C106.399 29.1898 105.323 29.1842 104.839 28.2192C104.456 27.4494 104.202 26.1442 104.608 25.5473C106.14 23.2603 107.937 21.1519 109.677 19.0155C109.942 18.6919 110.466 18.5804 110.871 18.3684L111.057 18.6641Z" fill="white"/>
<path d="M151.257 28.8495C151.955 31.5381 152.732 34.0761 153.239 36.6587C153.69 38.9457 152.603 39.9052 150.271 39.5426C148.626 39.2916 146.993 38.9848 145.348 38.6892C144.747 38.6835 144.148 38.6105 143.563 38.4716C143.174 38.3154 142.943 37.7799 142.644 37.4118C142.983 37.1606 143.365 36.9717 143.771 36.854C145.416 36.7313 147.083 36.8149 148.711 36.5807C149.245 36.5135 149.733 36.2433 150.07 35.827C150.407 35.4107 150.568 34.8809 150.519 34.3495C150.519 33.2339 150.479 32.174 150.367 31.0975C150.232 29.7476 149.364 29.2679 148.114 29.8145C147.297 30.1659 146.497 30.562 145.703 30.9301C145.146 31.1181 144.547 31.1429 143.976 31.0013C143.405 30.8598 142.888 30.5581 142.487 30.1325C142.053 29.53 142.521 28.9165 143.394 28.738C145.754 28.2527 148.119 27.7841 150.44 27.1482C151.989 26.7187 153.465 26.0326 154.946 25.4246C155.599 25.1736 158.325 26.1498 158.511 26.7689C158.544 26.9152 158.541 27.0671 158.501 27.2118C158.462 27.3565 158.388 27.4897 158.286 27.6C157.814 27.8988 157.31 28.1439 156.782 28.3308C156.086 28.636 155.367 28.886 154.631 29.0782C154.16 29.1961 153.663 29.1447 153.228 28.9332C152.361 28.3531 152.265 28.2861 151.257 28.8495Z" fill="white"/>
<path d="M72.5474 34.9686C72.6487 34.6451 72.8741 34.0483 73.0205 33.4347C73.4204 31.7278 73.6852 29.9819 74.1808 28.3029C74.868 25.9322 75.7523 23.6229 76.4789 21.2634C76.7098 20.5216 76.6535 19.696 76.8281 18.9318C76.9779 18.5252 77.1825 18.1406 77.4364 17.7883C77.7575 18.1732 78.2813 18.519 78.3602 18.943C78.5967 20.2036 78.5517 21.5089 78.8052 22.7639C79.3684 25.4135 78.8051 28.0184 78.6362 30.6401C78.6351 30.7986 78.6046 30.9555 78.5461 31.1031C77.6843 32.9382 76.7549 34.7455 75.972 36.6086C75.5946 37.5066 74.8962 37.8915 74.1865 37.607C73.4768 37.3226 73.1219 36.5807 72.6544 35.995C72.5305 35.8332 72.5981 35.5264 72.5474 34.9686Z" fill="white"/>
<path d="M97.6405 23.7457C97.4128 24.1202 97.1145 24.4478 96.7618 24.7107C95.5757 25.4458 94.3237 26.0713 93.0218 26.5793C91.332 27.1929 89.462 27.4216 87.7948 28.1021C86.2909 28.7101 84.9785 28.2639 83.576 27.9738C83.3507 27.9236 83.0127 27.5276 83.0465 27.3602C83.0803 27.1929 83.4183 26.9028 83.6774 26.7634C86.167 25.4135 88.6622 24.0636 91.18 22.7528C91.8482 22.4004 92.5576 22.1307 93.2922 21.9495C94.0357 21.771 94.8186 21.7933 95.579 21.6706C96.728 21.4754 97.6461 22.195 97.6405 23.7457Z" fill="white"/>
<path d="M74.1752 18.8705C74.0087 18.8381 73.8449 18.7933 73.6851 18.7366C73.1219 18.4409 72.5079 18.1342 71.9165 17.8329C72.2541 17.2297 72.6625 16.668 73.1332 16.1595C74.53 14.9491 76.1128 13.9283 77.4308 12.6621C78.9178 11.2118 80.1626 9.52169 81.5707 7.98773C82.1002 7.42993 82.6409 6.4482 83.6548 7.21239C84.6686 7.97658 84.984 9.41013 84.218 10.1966C83.6706 10.8297 83.0099 11.3572 82.2691 11.7529C80.4104 12.6398 79.5655 14.4694 78.1855 15.7858C77.1154 16.801 75.9325 17.727 74.806 18.6696C74.6096 18.7735 74.3959 18.8415 74.1752 18.8705Z" fill="white"/>
<path d="M119.917 0C120.937 0.524334 122.272 1.1156 122.677 2.78901C122.672 2.82788 122.672 2.86729 122.677 2.90615C122.88 3.53089 123.409 4.57956 123.24 4.71901C122.372 5.43005 121.368 5.96117 120.289 6.28086C119.344 6.45146 118.478 6.9143 117.816 7.60285C117.223 8.14517 116.536 8.5778 115.788 8.88022C114.893 9.32646 113.952 9.68345 112.826 10.1687L119.917 0Z" fill="white"/>
<path d="M94.3341 14.1849C94.5369 14.1849 94.7735 14.0957 94.9368 14.1849C95.5001 14.4583 96.5759 14.9157 96.5365 15.0774C96.2912 15.91 95.9107 16.6975 95.41 17.409C95.2466 17.6545 94.6496 17.6154 94.4637 17.8608C93.5174 19.1382 92.0924 18.8705 90.8082 19.0267C90.0365 19.1159 88.5552 17.9111 88.4144 17.1246C88.2735 16.3381 88.6453 16.0089 89.4057 15.7635C90.3012 15.5013 91.1292 15.0272 92.0135 14.7093C92.757 14.4415 93.5287 14.2686 94.2666 14.0566L94.3341 14.1849Z" fill="white"/>
<path d="M115.051 15.1053L118.126 12.2717L115.366 11.831L117.647 10.1576C118.002 9.89543 118.363 9.63326 118.729 9.38225C119.035 9.18317 119.38 9.05003 119.741 8.99145C120.103 8.93287 120.472 8.95016 120.827 9.04219C121.181 9.13423 121.512 9.29896 121.797 9.52571C122.083 9.75245 122.318 10.0361 122.486 10.3584C122.784 11.0222 122.125 11.7362 121.185 12.0318C120.499 12.286 119.846 12.6212 119.241 13.0303C117.912 13.8279 116.611 14.6591 115.299 15.4734L115.051 15.1053Z" fill="white"/>
<path d="M139.524 21.1072C139.911 21.5112 140.256 21.9522 140.555 22.4237C141.011 23.3106 141.343 24.2588 141.743 25.1736C141.93 25.5983 141.949 26.0766 141.796 26.5144C141.644 26.9522 141.332 27.3176 140.921 27.5387C140.211 27.9236 139.35 27.5387 138.859 26.6016C138.699 26.3684 138.606 26.0966 138.589 25.8151C138.764 24.2923 138.989 22.7695 139.203 21.2523L139.524 21.1072Z" fill="white"/>
</g>
<defs>
<clipPath id="clip0_22_1769">
<rect width="79.9696" height="27.1698" fill="white" transform="translate(218.03 9.81134)"/>
</clipPath>
<clipPath id="clip1_22_1769">
<rect width="204.451" height="40" fill="white"/>
</clipPath>
</defs>
</svg>
