<svg width="170" height="98" viewBox="0 0 170 98" fill="none" xmlns="http://www.w3.org/2000/svg">
<g clip-path="url(#clip0_23_3431)">
<path fill-rule="evenodd" clip-rule="evenodd" d="M145.604 61.5856C145.745 61.8805 145.81 62.2547 145.941 62.5609C145.257 64.0011 144.932 65.294 143.566 65.7589C142.847 65.8646 142.123 65.9215 141.398 65.929C140.313 66.0991 139.142 67.0631 137.917 66.5528C136.367 65.3167 136.952 62.4815 138.004 61.0526C138.724 60.9589 139.452 60.9589 140.172 61.0526C140.357 61.0526 140.433 61.2567 140.606 61.3134C141.139 61.3872 141.678 61.3872 142.211 61.3134C143.352 61.2307 144.499 61.3224 145.615 61.5856" fill="#00478B"/>
<path fill-rule="evenodd" clip-rule="evenodd" d="M159.699 66.1219C159.493 66.1219 159.7 66.5188 159.439 66.3827C158.995 65.9858 158.149 66.3827 157.574 65.8497C156.098 65.7414 154.615 65.8329 153.161 66.1219C152.261 66.292 151.297 66.6208 150.863 65.4981C150.632 64.4722 150.662 63.401 150.95 62.3908C151.437 62.096 151.589 61.4496 152.034 61.1434C154.096 61.3648 156.174 61.3648 158.236 61.1434C159.442 61.2736 160.655 61.3228 161.868 61.2908C162.477 61.7265 162.958 62.3303 163.259 63.035C163.559 63.7397 163.667 64.5177 163.57 65.2826C163.086 65.834 162.447 66.2093 161.745 66.3542C161.043 66.499 160.315 66.4057 159.667 66.0878" fill="#00478B"/>
<path fill-rule="evenodd" clip-rule="evenodd" d="M137.733 94.0876C137.472 94.0876 137.538 93.8154 137.234 93.9174C136.435 94.5654 135.578 95.1312 134.675 95.6072C134.361 95.4031 133.916 95.335 133.591 95.1535C132.442 93.5885 133.472 89.8802 134.859 89.2111C135.315 88.9843 135.759 89.0864 136.215 88.8596C136.432 88.7462 136.573 88.4513 136.811 88.3152C137.05 88.1791 137.136 88.3833 137.245 88.3152C137.678 88.0204 137.895 87.3739 138.329 86.8976C138.763 86.4213 139.11 86.376 139.348 86.1038C140.107 85.2646 140.433 84.21 141.137 83.4388C141.952 80.7714 142.239 77.9588 141.983 75.1716C141.463 75.3303 141.256 75.8407 140.899 76.1469C140.606 76.0788 140.573 76.2829 140.302 76.2376C140.064 76.4871 139.825 76.5097 139.543 76.7706C139.261 77.0314 139.37 77.1788 139.207 77.3036L138.611 77.6665C138.275 77.8479 137.819 77.8933 137.527 78.1088C136.746 78.6304 135.575 79.8439 134.643 78.5511C133.71 77.2582 133.743 74.1623 134.719 73.221C135.261 73.0963 135.889 73.0736 136.171 72.688C137.993 72.7787 139.511 71.3385 141.094 71.1797C141.774 70.5519 142.547 70.0426 143.382 69.6714C143.761 69.7395 143.848 70.125 144.238 70.2044C144.791 71.2591 144.477 72.5746 144.574 73.6633C144.648 73.9361 144.735 74.2048 144.835 74.4685C144.844 75.4555 144.727 76.4395 144.488 77.3943C144.108 80.7398 144.325 84.4028 143.219 87.1698C141.495 89.574 139.966 92.1824 137.798 94.0876" fill="#00478B"/>
<path fill-rule="evenodd" clip-rule="evenodd" d="M161.684 75.886C161.268 78.5589 161.069 81.2638 161.088 83.9718C161.001 86.0925 160.632 88.3946 160.578 90.3679C160.578 91.3545 160.86 92.3524 160.752 93.1122C160.752 93.3844 160.491 93.5318 160.415 93.8267C160.34 94.1215 160.415 94.5412 160.329 94.8927C160.181 95.3435 159.946 95.7575 159.638 96.1088C159.33 96.46 158.956 96.741 158.54 96.934C157.998 97.0474 157.9 96.8206 157.455 96.6732C156.878 95.6381 156.558 94.4686 156.523 93.271C157.304 87.907 157.184 80.7397 157.455 75.2396C153.368 74.5025 150.115 76.7252 147.014 76.9293C146.797 76.419 146.233 76.2603 145.995 75.7953C145.767 74.1396 146.776 72.8581 147.264 71.4519C148.922 71.1797 150.679 71.4519 151.85 70.7374C153.552 70.9075 155.753 70.1364 157.38 70.9075C159.418 70.6581 161.597 71.4859 164.341 70.556C165.121 70.556 166.184 70.7828 166.509 70.2044C166.749 70.2766 167 70.2977 167.248 70.2666C167.495 70.2354 167.734 70.1526 167.951 70.023C168.305 69.981 168.664 70.0454 168.984 70.2088C169.305 70.3722 169.574 70.6278 169.761 70.9456C169.947 71.2633 170.043 71.6301 170.038 72.003C170.032 72.3759 169.925 72.7394 169.729 73.0509C170.195 74.7293 168.493 74.6953 168.114 75.6252C166.585 76.4757 164.503 77.3263 163.018 75.886C162.596 75.9258 162.171 75.9258 161.749 75.886" fill="#00478B"/>
<path fill-rule="evenodd" clip-rule="evenodd" d="M112.979 84.4595C112.979 84.3234 113.066 84.4595 113.066 84.5389C113.066 83.9718 113.662 83.9265 113.575 83.212C113.836 82.9739 113.825 83.0079 114.085 82.7698C114.508 80.6151 115.462 79.6171 116.254 77.882C116.254 77.7799 116.405 77.8026 116.503 77.7913C116.438 77.4737 116.958 76.7706 117.099 76.3737C117.099 76.2603 117.251 75.6139 117.782 75.4891C117.712 75.3065 117.698 75.1054 117.743 74.9142C117.788 74.723 117.889 74.5512 118.032 74.4231C116.917 73.8854 115.668 73.7306 114.465 73.9809C113.933 73.5726 113.033 73.9809 112.762 73.4479C111.678 73.7427 110.203 72.7788 109.715 74.151C109.531 74.151 109.488 74.151 109.369 74.0602C109.26 74.5479 108.544 76.1129 108.523 76.3284C108.382 76.7706 107.937 77.383 108.013 77.7459C106.723 79.5604 106.376 82.0666 104.869 83.7904C105.021 84.21 104.674 84.2554 104.706 84.8564C104.544 84.8564 104.522 84.9698 104.359 84.9471C104.045 86.3874 102.809 86.875 102.494 88.3493C101.291 89.4833 100.326 91.6834 98.9272 92.7948C98.5893 93.0717 98.2024 93.276 97.7887 93.3958C97.5365 93.5485 97.2447 93.6142 96.9547 93.5837C96.6647 93.5531 96.3913 93.4279 96.1732 93.2257C95.8588 93.2257 95.8913 93.0442 95.5985 92.8968C93.4601 92.0245 91.4576 90.8244 89.6568 89.3359C89.6568 88.5874 88.8328 88.6101 88.4858 88.2019C88.7352 86.3874 90.6543 87.6802 91.7928 87.7596C92.7276 87.7488 93.6613 87.6882 94.5902 87.5781C95.9946 87.4712 97.3599 87.0455 98.5911 86.3307C99.1525 85.8071 99.6126 85.1758 99.9464 84.4708C100.077 84.4708 100.087 84.5502 100.196 84.5615C100.24 84.4989 100.271 84.4269 100.286 84.3505C100.301 84.2741 100.3 84.1951 100.283 84.1193C101.725 83.0646 103.264 80.3315 103.936 78.9593C104.592 77.5201 105.161 76.0391 105.639 74.5252C105.715 74.4572 105.639 74.0829 105.888 73.9015C104.565 73.6973 103.134 74.3664 101.985 74.4345C101.012 74.4069 100.041 74.5253 99.1007 74.786C98.2766 75.0922 97.2249 75.2963 96.4659 75.6706C95.5493 76.2474 94.5794 76.7262 93.571 77.0995C92.7253 77.0201 91.3157 76.9861 91.1965 75.6706C91.138 75.5796 91.0629 75.5017 90.9754 75.4414C90.8879 75.381 90.7898 75.3394 90.6869 75.319C90.6869 73.3458 90.3833 72.4952 91.1097 70.8849C96.531 70.3632 101.573 69.2065 106.484 68.8323C107.319 67.7662 105.259 64.7837 107.081 63.7744C107.753 63.4002 108.241 63.8878 109.032 63.8651C109.455 64.1033 109.856 64.8971 110.474 64.9992C110.594 64.9992 110.54 65.2146 110.561 65.3507C111.982 65.9518 111.7 67.3013 112.09 68.7529C114.599 68.9456 117.094 69.3016 119.561 69.8189C119.745 69.8189 119.68 69.6488 119.821 69.6374C120.019 69.8137 120.267 69.9179 120.527 69.9343C120.787 69.9507 121.045 69.8783 121.263 69.7282C121.516 70.0608 121.837 70.3295 122.203 70.5141C122.569 70.6986 122.971 70.7944 123.377 70.7942C123.93 72.019 125.166 72.3365 124.993 73.72C124.897 74.3339 124.725 74.9324 124.483 75.5005C124.212 76.0675 123.702 76.2717 123.464 76.8273C122.499 76.6119 122.249 77.848 121.599 78.2562C121.599 78.415 121.707 78.4377 121.686 78.6078C121.56 78.6912 121.41 78.7235 121.263 78.6985C120.784 79.4283 120.243 80.1115 119.647 80.7398C118.856 82.2141 117.978 83.6089 117.099 85.0038C117.076 85.2027 117.01 85.3936 116.907 85.5624C116.804 85.7312 116.666 85.8736 116.503 85.9791C116.048 87.4987 115.028 88.8596 114.801 90.3338C114.497 90.8555 114.053 91.1844 113.781 91.6607C113.326 92.4772 113.022 93.5659 111.83 93.6226C111.622 93.6478 111.411 93.6277 111.211 93.5635C111.01 93.4994 110.825 93.3926 110.666 93.2498C110.507 93.1071 110.378 92.9315 110.288 92.7342C110.197 92.5368 110.146 92.3219 110.138 92.103C110.138 90.504 111.288 89.6761 111.494 87.9297C111.985 87.3101 112.334 86.5806 112.513 85.7976C112.513 85.6162 112.892 85.7977 112.849 85.5368C112.459 85.4575 113.402 85.0038 113.022 84.5615" fill="#00478B"/>
<path d="M50.8623 62.7197C51.9532 62.6918 53.0405 62.578 54.1151 62.3795C55.125 62.1899 56.1471 62.08 57.1727 62.0506C57.391 62.0685 57.6081 62.0988 57.8232 62.1414C58.1407 62.2131 58.4636 62.2548 58.7882 62.2661C59.2552 62.2706 59.7077 62.0969 60.0609 61.7775C60.4142 61.4581 60.6441 61.0149 60.7074 60.531L60.8158 60.0547L60.4688 59.7712C59.491 59.1579 58.3512 58.8877 57.2161 59H56.2077H53.7139C52.3261 59 49.7347 59 49.2902 61.8011L49.1709 62.5383L49.8323 62.629C50.1919 62.6766 50.5541 62.6993 50.9166 62.697" fill="#00478B"/>
<path d="M64.9467 64.9538L65.0009 65.0785C65.9002 66.9651 66.193 69.105 65.8358 71.1797L65.1961 71.3271C63.9492 71.6106 62.2253 71.9962 61.9976 74.4911V74.6953L62.0734 74.888C62.172 75.2099 62.3637 75.4919 62.622 75.695C62.8803 75.8981 63.1925 76.0124 63.5155 76.0221C63.973 75.9818 64.4168 75.8387 64.8166 75.6025C65.1949 75.3616 65.6315 75.2395 66.0743 75.2509L66.4104 75.3303L66.7357 74.9561C66.8783 74.7473 67.0588 74.5701 67.267 74.4344C68.5509 74.1288 69.8645 73.9804 71.1811 73.9921C72.4606 73.9921 73.8159 74.1056 75.3881 74.2416C75.6919 74.487 76.0232 74.6926 76.3747 74.854L76.6458 75.0014L77.0578 75.2283L77.3723 74.8313C78.1299 73.925 78.519 72.7448 78.4565 71.5426V71.0323L78.0336 70.8735C77.3169 70.684 76.5627 70.7195 75.8651 70.9756C75.1604 71.157 74.5749 71.2818 74.2171 70.8962C74.2768 69.8806 74.5351 68.8887 74.976 67.9817C75.0953 67.7095 75.2037 67.4373 75.323 67.1425C75.7125 67.0661 76.0659 66.8543 76.3257 66.5414C76.5855 66.2284 76.7365 65.8328 76.7542 65.4187V65.2373L76.6892 65.0785C76.3531 64.1259 75.8109 63.9444 75.4098 63.9444C75.0215 63.984 74.6488 64.1243 74.3255 64.3527C74.1098 64.4953 73.8709 64.5953 73.6207 64.6475C73.4157 64.6245 73.2149 64.5711 73.0244 64.4888C72.7333 64.3619 72.4268 64.278 72.1136 64.2393C71.3221 64.2393 70.5523 64.2393 69.8042 64.2393C69.2946 64.2393 68.785 64.2393 68.2971 64.2393L68.1453 64.1372C67.6339 63.723 67.0215 63.4676 66.3779 63.4001C66.0266 63.4042 65.684 63.5145 65.3912 63.7177C65.2154 63.8363 65.0792 64.0091 65.0015 64.2123C64.9238 64.4155 64.9084 64.639 64.9575 64.8517L64.9467 64.9538ZM72.1895 67.4827C72.1189 68.6391 71.9113 69.7819 71.5715 70.8848C71.1793 70.8971 70.7882 70.9349 70.4005 70.9982C69.8034 71.1129 69.194 71.1397 68.5898 71.0776C68.5898 70.7828 68.5898 70.4766 68.5898 70.1704C68.5256 69.1575 68.5437 68.1408 68.644 67.1311C69.0343 67.1311 69.468 67.0517 69.9343 66.995C70.7107 66.8504 71.5026 66.8198 72.2871 66.9043L72.2221 67.5394" fill="#00478B"/>
<path d="M63.5589 86.909L63.7974 86.3533L63.3529 86.0017C62.725 85.5844 62.0117 85.3279 61.2711 85.2533C59.9592 85.0151 59.2978 84.8337 59.1785 83.5749C59.4707 83.2423 59.8464 83.0026 60.2628 82.8831C60.6518 82.7609 61.013 82.5571 61.3243 82.2841C61.6356 82.0111 61.8905 81.6748 62.0735 81.2954L62.1277 81.1707V81.0346C62.203 80.5614 62.1641 80.0759 62.0145 79.6224C61.8649 79.1689 61.6094 78.7616 61.2711 78.4376L61.0435 78.2221L60.7615 78.2789C60.0351 78.4263 59.6773 79.1181 59.3954 79.6624C59.2915 79.8845 59.1643 80.0937 59.0159 80.2861C58.7253 80.6073 58.3975 80.8892 58.0401 81.1253C57.7127 81.3514 57.4011 81.6015 57.1076 81.8738C56.2835 81.0897 55.5552 80.2022 54.9391 79.2315C55.0116 78.9067 55.0623 78.577 55.0909 78.2448L55.1559 77.7799C56.1457 77.6178 57.1507 77.5835 58.1485 77.6778C58.3386 77.7076 58.5269 77.7492 58.7123 77.8025C59.0104 77.9039 59.3206 77.9612 59.6339 77.9726C60.4037 77.9726 60.9025 77.417 60.9892 76.453V76.2602L60.9242 76.0901C60.7974 75.7054 60.5542 75.3743 60.2314 75.1472C59.9085 74.92 59.5237 74.8091 59.1352 74.8313C58.7182 74.8463 58.3039 74.9072 57.8991 75.0128C57.6047 75.0938 57.3032 75.1432 56.9992 75.1602C56.8576 74.494 56.7921 73.8126 56.804 73.1303C57.2932 73.1966 57.7854 73.2345 58.2786 73.2437C58.9818 73.3381 59.6937 73.1593 60.2792 72.7412C60.8648 72.3232 61.2833 71.6949 61.4555 70.9756L61.5856 70.4539L61.1627 70.1817C60.9597 70.087 60.7399 70.038 60.5176 70.038C60.2953 70.038 60.0755 70.087 59.8724 70.1817C59.7586 70.2339 59.6381 70.2683 59.5147 70.2838C59.5311 69.8797 59.6894 69.4962 59.9592 69.2065L60.2086 68.991V68.6281C60.1934 68.3295 60.1349 68.0351 60.0351 67.7549H60.5121C60.7744 67.7944 61.0388 67.8171 61.3037 67.8229C61.7119 67.847 62.1155 67.7222 62.4457 67.4699C62.7758 67.2177 63.0122 66.8535 63.1144 66.4394L63.212 66.1218L63.071 65.827C62.9137 65.4689 62.6616 65.1654 62.3445 64.9523C62.0275 64.7393 61.6588 64.6257 61.282 64.6249C60.9562 64.6381 60.6327 64.6875 60.317 64.7723C60.1097 64.8228 59.8997 64.8607 59.6881 64.8857C55.3357 65.0313 51.0071 65.62 46.7638 66.6435L46.4928 66.4507C46.2201 66.1889 45.8742 66.026 45.5061 65.9858C45.2459 65.9858 44.758 66.1105 44.4761 66.9384V67.0631V68.0951C44.5628 68.6394 44.7688 70.0683 45.8097 70.0683C46.2084 70.0105 46.5838 69.8377 46.8939 69.5693C47.0783 69.4559 47.2734 69.3198 47.4035 69.2518H47.5662C47.7979 69.3088 48.0392 69.3088 48.271 69.2518C48.7664 69.0839 49.2456 68.8675 49.7021 68.6054C50.1472 68.3494 50.6206 68.1514 51.1117 68.0157C51.1659 68.458 51.231 68.8662 51.3069 69.2745C51.4044 69.9096 51.502 70.4993 51.5454 71.1797C50.9752 71.4217 50.3707 71.5635 49.7564 71.5993C49.0096 71.6452 48.276 71.8255 47.5879 72.1323L47.2843 72.2911L47.1975 72.8581C47.0855 73.3787 47.0526 73.9145 47.0999 74.4458L47.165 75.3076L47.8915 75.0582C48.5529 74.8313 49.3877 74.5819 50.2768 74.3097C51.4153 73.9695 52.7055 73.5839 53.8006 73.1756C53.9447 73.566 54.0147 73.982 54.0066 74.4004C54.0204 74.7857 53.9653 75.1703 53.844 75.5344C51.7772 76.0514 49.6677 76.359 47.5445 76.453H47.2518L47.0024 76.8613C46.5381 77.5244 46.2603 78.31 46.2 79.1294L46.1458 79.7871L46.7313 79.8892C47.6576 79.9434 48.5677 79.618 49.2685 78.982C49.6464 78.6744 50.0717 78.4367 50.5262 78.2789C51.3028 78.1335 52.0959 78.1106 52.879 78.2108C52.4333 79.3646 51.637 80.3329 50.6129 80.9666C49.5129 81.4808 48.315 81.7252 47.1108 81.681H46.4711L46.3518 82.18C46.3136 82.3081 46.2589 82.4302 46.1892 82.5429C45.8841 83.0492 45.754 83.6495 45.8205 84.2439L45.8747 84.913H46.4711C47.7225 84.8457 48.9542 84.5582 50.1142 84.0625C50.7348 83.7734 51.3119 83.3914 51.8273 82.9284C51.987 82.7599 52.1124 82.5593 52.1959 82.3387L52.261 82.2027H52.4778H52.673C52.673 82.713 52.3152 83.1439 51.6646 83.7223C50.2938 84.8691 48.7153 85.7139 47.024 86.2059L46.6446 86.2966C46.3498 86.2963 46.0586 86.364 45.7917 86.4949C45.5247 86.6257 45.2887 86.8165 45.1003 87.0537C44.9118 87.2908 44.7757 87.5684 44.7016 87.8668C44.6274 88.1652 44.6171 88.4771 44.6712 88.7801V89.0637L44.8664 89.2338C45.1108 89.4438 45.3805 89.6192 45.6687 89.7554C45.8426 89.8432 46.0095 89.9456 46.1675 90.0616L46.959 90.7194L47.1433 89.6534C47.3858 89.6785 47.6302 89.6314 47.8481 89.5173C48.1896 89.2852 48.5092 89.0193 48.8022 88.7235C49.366 88.1791 49.8865 87.6801 50.537 87.7822L50.9491 87.8502L51.1551 87.442C51.3318 87.1161 51.6238 86.8758 51.9683 86.7729C52.3973 86.5925 52.799 86.3481 53.1609 86.0471C53.5669 85.6097 53.9301 85.131 54.2452 84.6182C54.2421 84.5956 54.2421 84.5727 54.2452 84.5502C54.1863 84.8312 54.0991 85.1049 53.985 85.3667C53.985 85.4234 53.8223 85.5708 53.7464 85.6615C53.6231 85.7754 53.5139 85.9049 53.4212 86.0471C51.9135 88.2346 49.7494 89.8314 47.2734 90.5833L46.9915 90.6514L46.8506 90.9575C46.7661 91.1222 46.6719 91.2813 46.5687 91.4338C46.1863 91.9478 45.953 92.5657 45.8964 93.2143V93.4411L45.994 93.6339C46.0895 93.8543 46.2412 94.0429 46.4325 94.1789C46.6238 94.315 46.8472 94.3932 47.0783 94.4051C47.3481 94.3852 47.6097 94.2989 47.8415 94.153C48.0733 94.0071 48.2687 93.8059 48.4119 93.5658C48.7023 93.4955 48.9733 93.3558 49.2034 93.1576C49.4528 92.9762 49.5287 92.9421 49.7021 92.9761L50.2443 93.0896L50.4069 92.4998C50.4069 92.4091 50.4069 92.4091 50.678 92.3411C50.9123 92.2982 51.1344 92.2013 51.3285 92.0576C51.537 91.859 51.681 91.5973 51.7405 91.3091C52.011 91.3266 52.2779 91.2376 52.4887 91.0596C53.0306 90.5494 53.5412 90.004 54.0175 89.4266L54.2452 89.1657C54.05 89.7101 53.8223 90.2204 53.5838 90.7421C53.2515 91.4497 52.9583 92.1767 52.7055 92.9195L52.2393 93.3731C51.7804 93.6862 51.3891 94.096 51.0904 94.5764C50.7916 95.0568 50.5921 95.5971 50.5045 96.1628C50.5156 96.4919 50.595 96.8146 50.7373 97.1083C50.8796 97.4021 51.0813 97.6599 51.3285 97.8639L51.502 98.0227H52.0875L52.261 97.8412C54.7267 95.3296 56.5049 92.1736 57.4112 88.7008V88.508C57.4112 88.2585 57.4112 88.009 57.4112 87.7482C57.4112 87.4873 57.4112 86.7729 57.4112 86.3646C57.7489 86.756 58.0536 87.1772 58.322 87.6234C58.9942 88.6781 59.699 89.7668 60.7507 89.8121C62.0735 89.8121 63.071 87.8502 63.4396 87.011L63.5589 86.909ZM53.8982 68.0044C54.6415 67.7649 55.4096 67.6202 56.186 67.5734C56.945 67.5734 57.1835 67.8342 57.2702 68.0157C57.2373 68.6513 57.0507 69.2678 56.7281 69.8075C56.6089 70.057 56.4679 70.3292 56.3486 70.6467C55.9587 70.6275 55.5688 70.6852 55.1993 70.8168C54.9549 70.8926 54.7045 70.9457 54.4512 70.9756C54.1449 70.0133 53.9519 69.0155 53.8765 68.0044" fill="#00478B"/>
<path d="M81.8393 93.2256L81.7743 92.9308L81.5466 92.7833C80.6049 92.2189 79.584 91.8133 78.5215 91.5812L77.5674 91.3204C77.0638 91.0588 76.6313 90.6688 76.3096 90.1864C76.065 89.8485 75.785 89.5404 75.4748 89.2678C75.2713 89.1023 75.0395 88.9791 74.7917 88.9049L74.5965 88.8255L74.3363 88.4173C73.4843 87.2285 72.7572 85.9472 72.1678 84.5955C72.3846 83.7903 72.6882 82.6676 72.9918 81.4202C73.1003 80.9779 73.252 80.4902 73.393 80.0139C73.6381 79.3167 73.8125 78.5945 73.9135 77.8592C74.02 77.0566 73.8215 76.2423 73.3605 75.5911C73.21 75.4095 73.0233 75.2647 72.8134 75.1667C72.6036 75.0688 72.3758 75.0201 72.1461 75.0241C71.5775 75.0601 71.0279 75.2518 70.5523 75.5798L69.9017 76.0108L70.3896 76.6571C71.1378 77.6438 71.0835 81.1253 70.3896 82.9738C69.8193 82.3968 69.3003 81.7666 68.8392 81.0913C67.7549 79.5603 66.4646 77.8366 64.4371 77.8366C64.2079 77.8367 63.9791 77.8595 63.754 77.9046L63.0709 78.0294L63.2444 78.7892C63.4429 79.5379 63.8934 80.1864 64.513 80.615C64.8799 80.8381 65.1572 81.1926 65.2936 81.613L65.3912 81.9532L65.684 82.0779C67.1424 83.111 68.2118 84.6425 68.709 86.41C68.6991 86.7261 68.6231 87.0361 68.4864 87.3183C68.3496 87.6004 68.1555 87.8478 67.9175 88.043C67.6004 88.3879 67.3204 88.7682 67.0826 89.1771C65.996 90.3924 64.5752 91.2246 63.0167 91.5586L62.5938 91.6153L62.4854 92.0802C62.4854 92.2163 62.4204 92.3637 62.377 92.5112C62.1842 92.9805 62.0903 93.4878 62.1015 93.9985C62.1127 94.5092 62.2288 95.0115 62.442 95.4711L62.648 95.7999H63.0059C65.0009 95.6411 66.2586 94.3937 67.4405 93.1916C68.0175 92.5537 68.6654 91.9902 69.3704 91.5132L69.5873 91.3771L69.674 91.1163C69.8311 90.4857 70.1283 89.9029 70.5414 89.4152C71.0787 90.2429 71.5364 91.1242 71.9076 92.0462C72.8834 94.2122 73.9893 96.6618 76.1362 97.002C76.5208 97.0542 76.9085 97.0769 77.2963 97.07C78.0875 97.0977 78.8779 96.9943 79.6383 96.7639C80.0026 96.5509 80.2916 96.2209 80.4623 95.8226C80.5446 95.6709 80.6389 95.5268 80.7442 95.3917L80.9286 95.2896C81.2927 95.1468 81.5882 94.8593 81.7506 94.4897C81.9131 94.1202 81.9294 93.6984 81.796 93.3163" fill="#00478B"/>
<path fill-rule="evenodd" clip-rule="evenodd" d="M33.2955 81.9563C31.6957 83.5021 31.0863 86.1972 29.1723 86.6955C27.8201 87.0413 25.9537 85.6785 24.0207 85.2412C21.8363 84.7011 19.5797 84.5771 17.355 84.8751C16.2409 89.482 18.7357 95.2483 15.8124 96.8857C14.4411 93.8958 15.3839 88.7498 15.0411 85.2412C13.9269 82.8106 10.8417 85.587 8.08019 85.6073C7.12795 85.6073 6.56612 85.0581 6.02335 85.2412C4.58547 85.709 4.02365 87.6108 2.92857 87.7837C2.08108 86.126 0.957424 83.1259 1.12883 81.2343C5.4996 82.0784 8.98479 80.5224 14.7839 80.8681C14.8982 76.9222 17.8406 80.5529 18.65 81.2343C23.8493 80.797 27.9915 82.0682 33.3335 81.9563" fill="#00478B"/>
<path fill-rule="evenodd" clip-rule="evenodd" d="M9.17461 87.9714C14.2351 90.2265 8.2033 97.0459 4.44434 93.7934C5.87216 91.6251 9.03862 92.0371 9.17461 87.9714Z" fill="#00478B"/>
<path fill-rule="evenodd" clip-rule="evenodd" d="M22.2682 87.9714C24.5997 89.4954 26.8114 91.1865 29.9999 91.4913C28.3717 92.927 26.4922 94.0031 24.4707 94.6571C22.9594 93.5068 23.0239 90.1345 22.2222 87.9714" fill="#00478B"/>
<path fill-rule="evenodd" clip-rule="evenodd" d="M28.8595 63.1685C28.6935 63.1685 28.6447 63.0062 28.674 62.8056C27.4144 61.8508 25.5495 62.6433 24.7683 62.8056C23.8976 62.9162 23.0181 62.945 22.1418 62.8916C21.1654 62.8916 20.3647 62.9966 19.525 63.073C18.6853 63.1494 17.6796 63.0062 16.7129 63.073C13.3541 63.3404 9.8781 64.1042 6.88052 63.6268C6.70476 63.5027 6.82193 63.073 6.50948 63.073C5.91536 63.0336 5.31853 63.0656 4.7324 63.1685C4.41995 63.6841 4.7324 64.2761 4.7324 65.0018C4.7324 65.441 4.40042 66.0807 4.44924 66.3767C4.661 66.6815 4.85027 67.0005 5.01557 67.3316C5.22062 67.6562 5.63069 67.8377 5.75762 68.1623C6.0896 68.9644 5.9041 70.2057 6.13844 71.2751C6.22631 71.6857 6.47042 71.9913 6.50948 72.3732C6.72429 74.407 6.73404 76.5363 7.07578 78.5988C7.5946 78.8698 8.16787 79.0262 8.75521 79.0571C9.61445 78.9712 10.3468 78.0354 11.2841 77.8636C11.8016 77.7681 12.3972 77.9495 12.9733 77.8636C13.3541 77.8063 13.7154 77.5485 14.0962 77.5007C14.8675 77.3861 16.049 77.5962 17.0938 77.5007C19.0823 77.1854 21.1144 77.2469 23.0792 77.6821C23.9677 77.3098 25.3444 77.0901 25.8033 76.1257C25.9595 75.7724 25.7448 75.1709 25.8912 74.6553C25.9791 74.3593 26.3013 74.2065 26.4575 73.8341C26.8188 72.8793 26.8481 71.5998 27.1117 70.7213C27.307 70.0625 27.7073 69.7665 27.6683 69.2604C27.6292 68.7543 27.2484 68.5825 27.2093 68.2483C28.3036 66.7528 28.8909 64.9596 28.8888 63.1208L28.8595 63.1685ZM10.337 66.6059C10.8838 66.4245 11.7821 66.7969 12.2117 66.2335C12.4463 66.2827 12.6687 66.3768 12.8659 66.5104C13.2076 66.5104 13.2076 66.2335 13.5201 66.2335C13.8162 66.3559 14.1366 66.4116 14.4577 66.3968C14.7788 66.3819 15.0923 66.2967 15.3753 66.1476L15.6291 67.3412C15.9806 67.4939 15.9025 67.9714 15.9221 68.4488L15.4924 68.5252C13.4127 68.783 11.3036 68.8307 9.39964 69.0694C8.50135 68.2483 9.35082 66.921 10.3761 66.6059H10.337ZM10.5616 75.1995C10.2394 75.1995 8.97002 74.6648 8.97002 74.006C8.97002 72.9938 10.6787 73.0511 11.04 72.1822C12.641 72.2529 14.2452 72.1858 15.8342 71.9817C15.8342 72.0295 15.8342 72.0772 15.8342 72.1249C15.7756 72.9461 15.8342 73.7482 15.7365 74.4166C15.7318 74.4642 15.7318 74.5122 15.7365 74.5598C13.8325 74.7794 12.0262 75.0754 10.6006 75.1995H10.5616ZM23.0596 74.3784C22.0246 74.4738 20.8822 74.2829 19.7789 74.2829C19.1052 74.2829 18.4217 74.2829 17.7382 74.3688C17.5725 73.5717 17.5725 72.7502 17.7382 71.9531V71.5902C19.857 71.7716 22.0832 71.3897 23.8017 71.5902C23.8939 72.0744 23.8742 72.5726 23.7441 73.0484C23.6141 73.5242 23.3769 73.9656 23.0499 74.3402L23.0596 74.3784ZM21.556 67.9236C20.4721 67.9236 19.4078 68.3533 18.3631 68.296C18.2529 68.2783 18.1449 68.2495 18.0409 68.2101L18.2654 65.7084C20.1108 65.7084 22.0832 65.9662 24.1727 66.0044C24.1727 66.4436 24.3485 67.112 24.4559 67.7422C23.5283 68.3724 22.5031 67.9427 21.5267 67.9236" fill="#00478B"/>
</g>
<g clip-path="url(#clip1_23_3431)">
<path fill-rule="evenodd" clip-rule="evenodd" d="M60.4685 3.90406C61.8228 3.71603 63.1984 3.746 64.5433 3.99281C65.7928 4.02689 67.0427 3.9377 68.2748 3.7266C69.923 3.65522 71.5743 3.71456 73.2132 3.90406C73.1882 4.77368 72.8499 5.60489 72.261 6.24429C70.5004 6.96521 67.8319 6.89865 65.6727 7.03175C64.9419 7.03175 64.2 7.30904 63.4581 7.28685C62.4505 7.28685 61.3875 6.75445 60.6014 7.46428C60.6014 8.11865 60.4906 8.38484 60.6789 8.85066C63.1702 9.37194 65.8388 8.05213 68.1419 8.93941C69.5039 9.38305 68.7841 11.6678 67.7101 11.5458C67.5883 11.9784 67.7101 12.5995 67.1897 12.6549C67.6326 13.886 66.8907 14.3629 66.8353 15.5164C65.119 16.4148 62.5612 16.3371 60.6014 16.2151C60.4449 16.6944 60.4449 17.211 60.6014 17.6902C64.1668 17.9453 67.8872 17.2577 71.1758 18.2115C71.428 19.3588 71.2754 20.5581 70.744 21.6054C73.0234 22.1193 75.3853 22.1458 77.6756 21.683C78.0853 21.5943 78.3288 21.2172 78.7164 21.4279C79.1593 22.0047 78.3067 22.3596 78.3731 23.4243C77.4652 24.3449 76.8119 25.7756 75.162 25.8533C73.5122 25.9309 71.962 25.2876 70.3897 25.2543C70.0557 25.8273 69.8589 26.4701 69.8147 27.132C69.7706 27.794 69.8802 28.4573 70.135 29.0697C69.9312 29.2344 69.6929 29.3508 69.4379 29.4104C69.1829 29.4699 68.9178 29.471 68.6623 29.4135C68.4076 29.5022 68.3302 29.7795 68.0533 29.8571H61.5426C60.9446 31.554 61.4429 34.2935 61.6311 36.4563C61.669 37.5611 61.3028 38.6418 60.6014 39.4952C58.2982 40.4158 56.0283 42.0351 53.0497 41.3142C52.9501 41.3142 52.6401 41.3142 52.6179 41.3142C52.5958 41.3142 52.6179 40.9925 52.5293 40.9704C51.5881 40.6265 50.2151 40.7264 49.2075 40.4491C48.9196 40.3714 48.6317 39.9611 48.2552 39.8391C48.067 39.7836 47.8123 39.9167 47.6573 39.8391C47.1129 39.5045 46.5913 39.1339 46.096 38.73C45.7528 38.5969 45.6753 38.9074 45.3099 38.6412C45.4095 38.2752 45.1327 38.2974 45.1327 38.0312C47.4801 38.2642 49.4954 39.9278 51.9868 39.0738C53.1715 39.34 53.6366 38.5858 54.5003 38.1976C54.766 38.0867 55.1203 38.1976 55.375 38.0312C57.9882 36.7669 58.3314 33.9608 57.966 30.1233C57.2597 30.0965 56.5553 30.2135 55.8954 30.4671C55.5079 30.567 55.6076 30.1788 55.2865 30.212C53.6893 30.4194 52.137 30.8877 50.6912 31.5984C50.3812 31.5984 50.8463 31.9866 50.6027 31.9533C50.2339 32.228 49.8122 32.4231 49.3643 32.5262C48.9165 32.6293 48.4521 32.6382 48.0006 32.5523C47.2919 30.6668 49.1079 29.48 49.9937 28.3931C52.6511 28.0826 55.1093 27.284 57.966 26.9956C58.1401 26.494 58.2006 25.9598 58.1432 25.4318C54.8111 25.5028 51.5435 26.3657 48.6096 27.9495C48.3771 27.8053 48.0559 27.7498 47.8234 27.6056C47.5096 26.9098 47.4699 26.1209 47.7122 25.3969C47.9545 24.6729 48.4609 24.0674 49.13 23.7016C52.5293 23.4687 54.8546 22.0823 58.0546 22.2154C58.3425 22.0047 58.1764 21.3503 58.3204 21.0065C57.1393 20.9591 55.9564 21.026 54.7882 21.2061C54.5003 21.2061 54.2678 21.5056 54.002 21.561C53.0276 21.7718 52.1529 21.561 51.5771 22.2487C50.0823 21.9825 49.4179 23.502 48.1999 22.6923C47.8783 21.9161 47.8469 21.0498 48.1113 20.2523C48.4899 19.8992 48.9443 19.6376 49.4395 19.4877C49.9347 19.3377 50.4575 19.3033 50.9681 19.3872C52.9058 18.145 55.3972 18.2115 58.1653 17.9121C58.2704 17.3978 58.3003 16.871 58.2539 16.3482C57.2117 16.1988 56.1501 16.2591 55.1314 16.5257C54.497 16.4923 53.8613 16.4923 53.2269 16.5257C52.3189 16.7697 52.2082 17.6902 51.3224 17.5571C51.0411 17.4932 50.7811 17.3575 50.5677 17.1631C50.3543 16.9688 50.1946 16.7224 50.1044 16.448C49.9826 15.9933 50.2594 15.4055 50.1044 14.7955C49.8829 13.9304 48.9971 13.8527 48.8089 12.5773C48.975 11.7122 49.0746 10.9136 49.2407 9.88216C49.5065 10.104 49.9604 9.62705 50.1044 9.62705C50.2483 9.62705 50.5362 9.87106 50.6248 9.88216C51.7321 10.0485 53.083 9.32759 54.1792 9.28323C55.4809 9.31728 56.7835 9.25798 58.0768 9.10577C58.1578 8.86258 58.1849 8.60462 58.1562 8.34986C58.1275 8.0951 58.0438 7.84968 57.9107 7.63067C55.8144 7.63458 53.7232 7.83882 51.6656 8.24067C50.2878 8.33218 48.9226 8.56255 47.5909 8.92831C46.8269 9.28322 46.7272 9.92652 45.5092 9.36087C45.1962 9.16093 44.9479 8.87419 44.7945 8.53551C44.6412 8.19683 44.5894 7.82082 44.6455 7.45321C44.7009 6.95412 45.166 6.49938 45.4206 6.06683C45.6262 5.58138 45.919 5.13781 46.2843 4.7581C50.1281 4.13887 54.0177 3.84945 57.9107 3.893C58.4533 3.19426 58.3425 1.83004 59.1287 1.37531C59.9481 1.85222 59.9813 3.11662 60.5128 3.893L60.4685 3.90406ZM53.6588 11.8785C52.8172 12.2002 51.3224 12.7436 52.1861 13.9637C54.2567 13.7086 56.4269 13.4535 58.1653 13.0986C58.1653 12.6771 58.265 12.0782 58.0768 11.8009C56.5598 11.5458 55.3529 12.3222 53.6477 11.8785H53.6588ZM63.9675 11.9673C62.9297 11.8688 61.8866 11.8391 60.845 11.8785C60.6751 12.0471 60.5474 12.2536 60.4724 12.481C60.3973 12.7085 60.377 12.9505 60.4131 13.1873C61.8568 13.2331 63.3019 13.2035 64.7426 13.0986C65.0353 12.812 65.2456 12.4519 65.3516 12.056C65.1633 11.568 64.2443 11.6678 63.9675 11.9673ZM61.0221 20.6516C60.9003 21.0619 60.7453 21.5278 61.0221 21.8716C63.4581 22.0379 66.182 21.7163 68.7731 21.6941C68.7986 21.4027 68.7685 21.1091 68.6845 20.829C66.1575 20.1132 63.4905 20.0522 60.9335 20.6516H61.0221ZM60.845 25.088C60.7882 25.6106 60.8182 26.139 60.9335 26.6518C62.9709 26.5187 65.0415 25.9863 67.1786 26.5631C67.5772 26.1305 68.2859 25.9531 68.2194 25.088C65.3184 24.9992 63.5246 25.1434 60.845 25.088Z" fill="#00478B"/>
<path fill-rule="evenodd" clip-rule="evenodd" d="M158.285 6.85428C158.285 7.16483 158.695 7.45321 158.717 7.80813C158.739 8.16304 158.385 8.57339 158.197 9.20558C157.953 10.0263 157.931 11.2907 157.588 12.1558C157.455 12.5107 157.145 12.6438 157.067 12.9433C156.934 13.4424 157.134 13.9969 156.979 14.3296C156.558 15.2502 155.285 15.4388 154.465 15.8048C152.647 15.3956 150.769 15.3354 148.929 15.6273C147.932 15.716 146.88 15.5275 146.15 15.6273C145.806 15.6273 145.463 15.9268 145.109 15.9822C144.588 16.0599 144.001 15.8824 143.547 15.9822C142.684 16.1375 142.008 17.0248 141.211 17.0913C140.665 17.0671 140.131 16.9192 139.65 16.6588C139.34 14.7067 139.329 12.6882 139.129 10.7583C139.129 10.4034 138.864 10.104 138.786 9.71579C138.733 8.72201 138.614 7.73279 138.432 6.75447C138.321 6.45501 137.934 6.28863 137.745 5.97808C137.594 5.64835 137.42 5.32964 137.225 5.02426C137.17 4.74699 137.48 4.1259 137.48 3.71553C137.48 3.03897 137.192 2.47333 137.48 1.98533C138.023 1.88027 138.578 1.85039 139.129 1.89658C139.417 1.89658 139.307 2.29586 139.473 2.41786C142.263 2.87259 145.463 2.15167 148.586 1.89658C149.471 1.81894 150.379 1.97422 151.188 1.89658C151.992 1.79437 152.802 1.73513 153.613 1.71912C154.422 1.76817 155.234 1.73847 156.037 1.63041C156.79 1.48622 158.518 0.687666 159.68 1.63041C159.68 1.83004 159.68 1.96315 159.858 1.98533C159.857 3.72824 159.311 5.42706 158.296 6.84318L158.285 6.85428ZM147.977 4.62497C147.135 4.81352 146.382 5.32373 145.629 4.89118C145.341 4.89118 145.341 5.16844 145.031 5.15735C144.85 5.02495 144.642 4.93409 144.422 4.89118C144.024 5.42355 143.193 5.06863 142.684 5.235C141.776 5.53446 140.99 6.79883 141.82 7.58629C143.581 7.35338 145.529 7.30902 147.456 7.06501C148.083 6.90889 148.719 6.79037 149.361 6.71009C149.593 6.71009 149.848 6.87646 150.058 6.88755C151.022 6.94301 152.007 6.52155 153.004 6.54373C154 6.56591 154.831 6.96519 155.694 6.36627C155.595 5.76735 155.484 5.12408 155.44 4.71372C152.727 4.71372 150.224 4.14805 147.977 4.62497ZM148.929 9.92649C147.345 10.8027 145.098 10.47 143.293 10.5365C142.961 11.3905 141.399 11.3129 141.388 12.2778C141.388 12.8878 142.562 13.3869 142.861 13.3869C145.075 13.1873 148.397 12.5218 151.354 12.5218C152.372 12.5218 153.435 12.6993 154.388 12.6105C154.693 12.2571 154.914 11.8389 155.035 11.3875C155.156 10.9361 155.173 10.4631 155.085 10.0041C153.347 9.74904 151.044 10.226 148.929 9.91542" fill="#00478B"/>
<path fill-rule="evenodd" clip-rule="evenodd" d="M160.19 17.6237C159.979 18.5553 160.788 18.7328 160.71 19.5425C159.071 20.0083 156.79 19.8419 155.251 20.4076C153.79 19.7088 152.173 20.7847 150.911 20.1414C149.938 20.329 148.954 20.4475 147.965 20.4963C148.12 21.4723 148.962 22.0047 148.574 23.269C150.435 23.391 152.616 21.7052 154.033 22.4039C154.174 22.7361 154.263 23.0876 154.299 23.4465C153.348 24.185 152.255 24.7176 151.088 25.0103C150.158 25.4096 149.405 26.2304 148.486 26.6629C147.987 26.8958 147.378 26.9513 146.836 27.1842C145.332 27.7356 143.926 28.5258 142.673 29.5244C144.588 30.6335 146.681 31.177 148.74 32.2195C149.992 32.5038 151.213 32.9125 152.383 33.4395C153.537 34.0483 154.76 34.5139 156.026 34.8259C157.191 34.8581 158.356 34.7726 159.503 34.5708C160.201 34.4932 160.898 34.6484 161.585 34.5708C162.317 34.4161 163.039 34.2123 163.744 33.9608C165.612 33.5975 167.366 32.7913 168.86 31.6095C169.391 31.6872 169.613 31.4321 169.967 31.3544C170.055 32.1973 169.048 32.2972 169.358 33.0957C168.727 33.6059 168.45 34.4932 167.708 34.9146C167.631 35.8352 167.022 36.2456 166.501 36.7336C166.435 36.9776 166.623 36.9554 166.59 37.1772C165.97 37.7318 165.338 38.1421 164.674 38.7411C164.335 39.0402 163.964 39.3006 163.567 39.5174C162.282 40.316 160.81 41.9464 159.658 41.9464C159.237 41.9464 158.817 41.4362 158.185 41.6026C155.096 39.3844 151.055 38.0312 147.689 36.057C146.377 35.801 145.135 35.2679 144.046 34.4932C141.953 33.8056 140.524 32.4635 138.243 31.9755C137.911 31.3544 137.535 31.31 136.937 30.9329C136.826 30.5669 136.616 30.3229 136.505 29.968C136.682 29.2138 136.848 28.1824 137.612 27.7498C138.123 27.5478 138.644 27.3738 139.174 27.2285C139.716 27.0067 140.281 26.918 140.646 26.4411C140.281 24.9993 140.513 23.3689 139.351 22.7921C138.686 23.0583 137.978 23.2802 137.358 23.5796C136.859 23.7016 136.25 22.892 135.531 22.5371C134.977 22.2709 134.302 22.3707 134.313 21.5832C134.313 21.1063 134.877 21.0619 134.922 20.4741C135.691 20.0163 136.508 19.6444 137.358 19.365C137.99 19.0689 138.661 18.8635 139.351 18.755C140.536 18.633 141.82 17.9897 143.16 17.8899C143.481 17.8899 143.846 17.8899 144.201 17.8899C144.555 17.8899 145.308 17.5017 145.939 17.4573C146.602 17.5073 147.269 17.5073 147.932 17.4573C150.147 16.8917 152.915 17.4573 155.218 17.3686C157.023 17.2466 159.016 17.0359 160.156 17.7124L160.19 17.6237ZM142.296 22.9252C142.853 23.681 143.262 24.5352 143.503 25.4429C144.423 25.2297 145.284 24.817 146.028 24.234C145.852 23.0781 145.501 21.956 144.987 20.9067C143.481 20.9621 142.274 21.3281 142.296 22.903" fill="#00478B"/>
<path fill-rule="evenodd" clip-rule="evenodd" d="M98.7139 20.9288C98.8689 21.2394 98.6474 21.2172 98.5367 21.4501C98.7249 21.8161 99.3561 21.7274 99.4889 22.1489C99.4889 22.2819 99.4114 22.293 99.4004 22.4039C98.4422 23.1871 97.3608 23.8056 96.2003 24.234C94.8937 26.4522 91.0515 26.5409 90.21 23.7903C90.3428 23.4909 90.3207 23.0361 90.5532 22.8365C91.3288 22.647 92.0445 22.2657 92.6349 21.7274C94.6779 21.616 96.7098 21.3528 98.7139 20.9399" fill="#00478B"/>
<path fill-rule="evenodd" clip-rule="evenodd" d="M91.0735 29.1806C91.3282 29.1806 91.3504 29.3802 91.594 29.358C94.2404 28.7258 96.0231 27.2064 97.839 25.7978C97.9276 25.5316 97.9054 25.1656 98.1048 25.0103C99.1567 25.0103 99.3781 25.82 100.186 26.0529C100.186 26.4078 100.541 26.4744 100.186 26.6629C100.098 26.9845 100.508 26.796 100.441 27.0954C100.31 27.7131 100.225 28.3396 100.186 28.9698C99.3338 29.7351 98.149 30.0789 97.4072 30.8775C97.0307 31.2879 96.9089 32.1751 96.1117 31.9866C95.2979 33.053 94.2221 33.8899 92.9891 34.4155C92.5019 34.6152 92.059 35.1143 91.4279 34.6706C91.2839 34.5819 91.1954 34.2381 90.9961 34.0717C90.6197 33.8306 90.3054 33.5042 90.0784 33.1189C89.8514 32.7335 89.7181 32.3 89.6895 31.8535C89.8565 30.8574 90.3423 29.9426 91.0735 29.2471" fill="#00478B"/>
<path fill-rule="evenodd" clip-rule="evenodd" d="M112.588 10.7694C112.898 9.78233 116.364 7.56412 114.404 6.51047C114.429 6.16924 114.543 5.84058 114.735 5.55743C114.927 5.27429 115.189 5.04659 115.496 4.89718C115.804 4.74777 116.145 4.68189 116.486 4.70614C116.826 4.73039 117.155 4.84394 117.438 5.03537C117.672 5.59734 117.763 6.20859 117.703 6.81442C117.643 7.42024 117.434 8.00172 117.095 8.50684C116.873 8.75085 116.397 8.8063 116.142 9.02813C115.543 9.63915 115.045 10.3433 114.67 11.1132C116.519 11.2796 118.711 12.1114 120.472 11.9783C120.859 11.9783 121.313 11.5791 121.69 11.9783C122.979 11.5045 124.227 10.9258 125.421 10.2481C124.768 11.7898 125.621 13.5755 124.989 14.9397C124.422 15.7968 123.664 16.5105 122.775 17.0248C122.332 17.3353 121.933 17.8123 121.479 18.0674C121.291 18.1672 120.915 17.8899 120.959 18.3224C118.938 17.7512 116.882 17.3177 114.803 17.0248C113.164 16.8362 111.481 16.1042 110.119 15.9822C109.191 16.0065 108.263 15.9769 107.339 15.8935C107.063 15.8269 106.963 15.5608 106.642 15.716C106.321 15.8713 106.188 16.7031 105.778 16.7586C105.701 18.3779 105.978 19.3428 105.867 20.8401C105.989 21.1285 106.265 21.2505 106.476 21.4501C108.134 20.5764 109.915 19.9594 111.758 19.6201C112.82 19.1411 113.984 18.9353 115.146 19.0212C115.611 19.0877 115.943 19.5314 116.441 19.2763C116.619 19.3919 116.751 19.5655 116.816 19.7676C116.88 19.9697 116.873 20.1879 116.796 20.3854C116.098 20.9067 115.157 21.1839 114.803 22.0379C112.798 22.9141 110.551 22.3817 108.989 23.513C109.443 23.8569 109.897 24.1341 110.373 24.4669C110.85 24.7996 111.337 24.9549 111.857 25.2543C112.71 25.7423 113.54 26.5076 114.448 27.0733C115.356 27.6389 116.331 28.1824 117.227 28.7258C117.781 29.1874 118.357 29.6205 118.955 30.0235C119.876 30.401 120.839 30.6654 121.823 30.811C123.417 30.9773 124.137 30.1122 125.377 29.9348C125.488 29.8682 125.587 29.358 125.72 29.5909C126.041 30.1122 125.72 30.7888 125.72 31.3322C125.089 31.3877 124.901 32.9294 125.897 32.7186C125.41 33.0735 125.2 33.8277 124.79 34.1937C124.569 34.4155 124.115 34.5043 123.749 34.8037C123.594 34.9368 123.639 35.1698 123.495 35.325C123.104 35.5837 122.697 35.817 122.277 36.0237C121.36 36.781 120.297 37.3399 119.154 37.6652C118.777 37.7398 118.386 37.681 118.047 37.4989C116.729 36.5894 115.644 35.0699 114.315 33.9386C113.651 33.3619 112.854 32.9404 112.156 32.3748C111.459 31.8092 110.916 31.0772 110.241 30.5448C108.768 29.4357 107.517 28.1602 106.254 27.2175C105.535 29.2139 106.819 33.3286 106.088 35.9905C105.955 36.4341 105.036 38.12 104.693 38.1532C104.35 38.1865 103.586 37.2771 103.398 37.1218C103.209 36.9665 103.021 36.9554 102.966 36.7669C102.653 35.6646 102.623 34.5012 102.877 33.3841C103.032 31.7204 102.955 29.6908 103.043 27.65C103.099 26.5409 103.309 25.3209 103.309 24.1785C103.309 23.4021 103.11 22.3707 103.132 21.4834C103.154 20.5961 103.353 19.5979 103.309 18.6108C103.254 17.3575 103.431 16.0488 102.789 15.6606C101.681 16.0377 99.6661 15.8048 98.4481 16.3593C98.2654 16.286 98.0665 16.2627 97.8719 16.292C97.6773 16.3212 97.494 16.4019 97.3408 16.5257C96.1259 16.6259 94.9302 16.8908 93.7865 17.3131C93.0958 17.6983 92.4528 18.1637 91.8709 18.6995C90.8522 19.4093 90.1214 18.9324 89.0916 18.6108C88.4515 17.7911 88.0872 16.7893 88.0508 15.7493C88.0508 15.2613 88.5269 15.0173 88.4051 14.4406C88.8112 14.0412 89.1817 13.607 89.5124 13.1429C93.6284 12.0352 97.8338 11.2929 102.08 10.9247C102.346 10.7473 102.6 10.1594 102.257 9.88216C103.032 8.28505 103.752 5.64535 106.155 6.84319C106.155 8.3183 107.406 9.43851 107.262 10.6696C109.007 10.9904 110.781 11.1354 112.555 11.1022C112.234 10.5144 111.769 11.1022 111.248 10.6696C111.492 10.4922 111.658 10.6696 111.514 10.226C111.735 10.714 111.957 10.7473 112.621 10.6696L112.588 10.7694ZM122.764 31.0771C123.085 31.188 124.724 31.2213 124.978 30.6446C124.214 30.8886 123.262 30.6446 122.764 31.0771Z" fill="#00478B"/>
<path fill-rule="evenodd" clip-rule="evenodd" d="M23.6734 13.3758C23.8394 14.4849 22.4221 14.4849 22.7211 15.594C24.9356 16.6144 29.6526 16.4702 32.2547 16.3815C32.6976 17.2909 31.6236 17.4129 31.5682 18.1117C30.1952 18.8437 29.4644 21.0064 27.4049 20.5517C26.962 20.4519 26.6409 20.0526 26.1869 19.853C24.9078 19.3372 23.5683 18.9868 22.2007 18.8104C22.0066 19.0949 21.9102 19.4349 21.9262 19.7791C21.9422 20.1233 22.0696 20.4529 22.2893 20.7181C21.8463 22.0157 21.2927 22.6701 19.2553 22.5481C18.9342 22.5481 18.5799 22.3706 18.3031 22.3706C18.0263 22.3706 17.8602 22.5481 17.6941 22.5481C16.8533 22.5434 16.0137 22.4841 15.1806 22.3706C13.5689 23.0607 11.7933 23.2725 10.0649 22.9806C9.59567 23.3593 9.06341 23.6522 8.49262 23.8457C7.30783 23.2912 7.71752 21.6275 7.54036 20.1081C6.28914 20.2966 5.87945 21.3503 4.86075 21.7606C4.47542 21.5823 4.06432 21.4663 3.64274 21.4168C2.69049 19.0211 5.18186 18.2669 6.96457 17.7678C6.63239 16.2373 6.30021 14.1633 7.56251 13.4202C9.63311 13.6863 12.2684 12.2112 14.6823 12.3776C16.8968 12.5329 19.0007 12.2778 20.8387 12.3776C21.946 12.4441 23.1862 12.3776 23.6955 13.3425L23.6734 13.3758ZM15.8006 15.1614C15.8006 15.4387 15.5349 15.7382 15.7121 15.9489C16.9301 15.8158 18.7571 16.2262 20.0526 15.9489C20.1186 15.7686 20.1448 15.5761 20.1295 15.3847C20.1142 15.1932 20.0578 15.0073 19.964 14.8398C18.5668 14.7255 17.1603 14.8416 15.8006 15.1836V15.1614ZM9.15697 15.7936C9.17121 16.1411 9.29529 16.4752 9.51131 16.7475C10.8978 16.7302 12.2728 16.4944 13.5861 16.0487V15.3611C12.0988 15.3534 10.6147 15.4984 9.15697 15.7936ZM16.011 18.3113C16.011 19.1099 15.9556 19.9306 16.3543 20.3077C17.6312 20.2901 18.9064 20.2049 20.1744 20.0526C20.3206 19.5659 20.2892 19.0431 20.0858 18.5775C18.7476 18.2913 17.375 18.2016 16.011 18.3113ZM9.59989 20.7402C10.8162 20.6974 12.029 20.5826 13.2318 20.3964C13.3314 19.8862 13.5529 19.5535 13.4089 19.01C11.7923 18.9324 8.86909 19.01 9.59989 20.7402Z" fill="#00478B"/>
<path fill-rule="evenodd" clip-rule="evenodd" d="M8.93554 42.9889H8.6698C8.76946 40.6598 10.53 39.2401 11.0172 36.9997C10.3529 36.5117 9.2788 36.9997 8.80267 37.3436C8.48909 37.2166 8.19758 37.0407 7.939 36.8223C7.56253 35.4359 8.0165 33.3508 7.67325 31.0882C7.67325 30.811 7.4075 30.567 7.32999 30.2231C7.25248 29.8793 7.32999 29.4468 7.24141 29.114C6.92374 28.2254 6.77721 27.2846 6.80957 26.3413C6.87899 25.7457 7.153 25.1928 7.58466 24.7774C8.1383 24.3671 8.44834 24.7774 8.80267 24.9438C9.90995 24.367 11.593 24.489 12.966 23.9012C13.6747 23.9012 14.6159 23.7571 14.9591 24.1674C16.5425 23.5241 19.654 24.3892 21.2042 23.7349C21.7799 23.9567 22.6104 23.9456 22.9315 24.4225C23.2194 25.2543 22.7211 25.3763 22.4997 25.82C22.2394 26.4289 22.0643 27.0708 21.9792 27.7276C21.9792 28.3044 21.8796 29.2915 21.9017 29.6353C21.9239 29.9791 22.1232 30.079 22.1564 30.3341C22.2002 31.4303 22.0232 32.5242 21.636 33.5504C22.0457 34.3823 21.5585 35.0145 21.1156 35.6356C20.1633 35.9479 19.1717 36.1235 18.1702 36.1569C18.0595 37.9647 20.5951 40.1053 18.6906 41.4473C18.0041 41.3142 18.1702 40.4713 17.9931 39.9722C17.8823 39.6616 17.6166 39.34 17.4726 39.0183C16.9965 37.9092 16.8969 36.9554 16.0885 36.3232C14.7377 35.8796 13.5197 36.667 12.5342 37.1107V37.8871C11.5466 39.054 10.8856 40.4623 10.6186 41.9685C9.95424 42.2236 9.57777 42.7782 8.89126 43.0111L8.93554 42.9889ZM18.3474 25.9863C17.3951 25.8976 16.3211 26.2304 15.4795 26.1638C13.5861 26.0196 11.9584 26.9845 10.0982 26.8625C9.766 27.1287 9.35631 27.3284 9.32309 27.9051C10.8067 27.8418 12.2855 27.6937 13.7522 27.4615C14.2505 27.4615 14.7155 27.6833 15.2249 27.6389C15.7342 27.5945 15.9557 27.406 16.3321 27.3838C17.5493 27.4321 18.7683 27.3727 19.9751 27.2064C19.8201 26.8404 19.7204 26.4189 19.5432 26.0973C19.056 26.3967 18.5356 26.0307 18.3363 26.0085L18.3474 25.9863ZM14.9481 29.2249C14.7709 29.4246 14.6602 29.6908 14.339 29.7462C13.1321 29.7462 10.519 29.4246 9.5667 30.6113C11.3937 31.1881 13.9958 30.5226 15.7231 30.5226C17.0873 30.5976 18.4554 30.5419 19.809 30.3562C19.9005 30.1999 19.9551 30.0247 19.9685 29.8439C19.982 29.6632 19.9539 29.4818 19.8865 29.3137C18.2421 29.4653 16.586 29.4356 14.9481 29.2249ZM15.4685 32.6188C15.3863 32.538 15.2881 32.4754 15.1802 32.4351C15.0723 32.3949 14.9571 32.3778 14.8422 32.3852C14.7272 32.3925 14.6151 32.424 14.5132 32.4776C14.4112 32.5313 14.3217 32.6058 14.2505 32.6964C13.0325 32.9293 11.7148 32.8628 10.6075 33.0513C10.5522 33.2842 10.3529 33.3619 10.1757 33.4839C10.1093 33.8721 10.2975 34.0052 10.2643 34.349C13.4421 33.2399 16.0332 34.0163 19.5432 33.5726C19.5369 33.2193 19.5666 32.8663 19.6318 32.519C18.1259 32.519 17.1405 32.519 15.4685 32.6188Z" fill="#00478B"/>
<path fill-rule="evenodd" clip-rule="evenodd" d="M0.000205152 8.59543V7.48632C0.144151 7.25341 0.277023 7.0094 0.432042 6.78758C1.66112 6.98722 2.93448 7.1314 3.55455 7.89669C6.59956 7.36432 9.7553 7.80796 12.9221 7.03159C13.1325 6.45485 13.7526 5.81155 13.6197 5.21264C13.365 4.10353 11.5602 4.55829 10.7518 5.03521C10.1257 4.92437 9.54872 4.62338 9.0991 4.17302C8.64949 3.72266 8.34899 3.1447 8.23834 2.51752C8.49136 2.17768 8.69629 1.80445 8.84732 1.40841C9.63349 1.40841 10.021 0.421305 10.8404 0.188393C11.357 0.101452 11.8784 0.0459025 12.4017 0.0220337C13.21 0.155126 14.6827 0.365847 15.1809 0.532212C15.4799 0.643123 15.6792 0.953693 16.0446 1.14224C16.9526 1.61916 17.9713 1.66353 18.1263 2.36226C18.2813 3.061 17.7941 3.54899 17.3401 4.01482C17.4209 4.96041 17.2728 5.91156 16.9083 6.78758C20.972 6.61012 27.5381 6.32176 32.4101 6.62122C32.7313 6.94286 33.2295 7.26451 33.3624 7.66378C33.5506 8.22943 33.1963 8.77287 33.1963 9.4827C33.1963 9.74888 33.3735 9.95962 33.3624 10.1814C33.296 11.3682 32.5319 12.4884 32.4987 13.5088C31.1128 14.1384 29.5738 14.3503 28.0696 14.1187C27.5935 14.0411 27.2835 13.5642 26.8627 13.7749C27.1838 12.5327 29.0773 12.8766 29.4648 11.5567C29.5202 10.9776 29.5202 10.3946 29.4648 9.81545C25.043 9.50277 20.608 9.41762 16.1775 9.56034C15.8896 9.6158 15.7457 9.82653 15.4799 9.90416C12.8446 9.77107 10.165 10.6029 7.85078 10.1703C6.67707 10.3811 5.63624 10.1704 4.63969 10.7804C3.84245 12.3553 4.63969 14.7509 4.20785 16.0708C3.3774 16.5255 2.92342 16.3037 1.9933 16.2482C1.9933 15.8268 1.55039 15.7713 1.3843 15.4719C0.808516 14.3628 1.11855 12.6769 0.68671 11.5567C0.520619 11.1131 0.0887872 10.7915 0.000205152 10.3367C-0.132668 9.69345 0.166294 9.11672 -0.0883789 8.60653" fill="#00478B"/>
</g>
<defs>
<clipPath id="clip0_23_3431">
<rect width="170" height="39" fill="white" transform="translate(0 59)"/>
</clipPath>
<clipPath id="clip1_23_3431">
<rect width="170" height="43" fill="white"/>
</clipPath>
</defs>
</svg>
