<svg width="30" height="20" viewBox="0 0 30 20" fill="none" xmlns="http://www.w3.org/2000/svg">
    <path d="M25.0681 5.19906L20.966 9.19986C20.992 9.40836 21.0049 9.61822 21.0047 9.82826C21.0001 11.3424 20.3812 12.793 19.2834 13.8625C18.1856 14.9319 16.6985 15.533 15.1477 15.5342C14.934 15.5342 14.7205 15.5217 14.5084 15.4965L11.9339 18.01C12.9903 18.2593 14.0738 18.3831 15.1606 18.3787C21.6955 18.3787 26.497 13.2593 29.8009 9.8995C28.3691 8.19886 26.7852 6.62585 25.0681 5.19903L25.0681 5.19906ZM23.8967 0.452515L21.4638 2.82788C19.5208 1.80945 17.3529 1.26878 15.1477 1.25268C9.79706 1.25268 5.62638 4.52037 0.511719 9.82407C2.93173 12.3125 5.14151 14.6418 7.7203 16.2463L6.11982 17.809L7.9005 19.5475L25.6774 2.19108L23.8967 0.452515ZM9.3079 9.82826C9.30578 8.7498 9.61719 7.6929 10.206 6.78041C10.7947 5.86792 11.6367 5.13732 12.6339 4.67353C13.6311 4.20975 14.7427 4.03182 15.8394 4.16045C16.9361 4.28907 17.9729 4.71896 18.8292 5.40013L17.1129 7.07586C16.5444 6.68348 15.8654 6.47273 15.1692 6.4726C14.5394 6.46267 13.9192 6.62382 13.3778 6.93805C12.8364 7.25229 12.3951 7.70724 12.1031 8.25214C11.8111 8.79704 11.68 9.41044 11.7244 10.0239C11.7688 10.6373 11.9869 11.2266 12.3544 11.726L10.6166 13.4395C9.7591 12.4226 9.29174 11.1455 9.29504 9.82826H9.3079Z" fill="#C4C4C4"/>
</svg>
