<svg width="42" height="52" viewBox="0 0 42 52" fill="none" xmlns="http://www.w3.org/2000/svg">
<path d="M40.6541 6.20005V6.17779L40.6522 6.15561C40.4084 3.42381 38.2058 1.42505 35.5167 1.42505H5.48332C2.76924 1.42505 0.56665 3.68276 0.56665 6.42505V46.025C0.56665 48.7673 2.76924 51.025 5.48332 51.025H35.7375C38.4516 51.025 40.6541 48.7673 40.6541 46.025V6.20005ZM27.4042 10.3768V4.45005H30.8208V10.3768L29.4693 8.99981L29.1125 8.63624L28.7556 8.99981L27.4042 10.3768ZM37.6666 45.3H37.225V45.8C37.225 46.6911 36.5251 47.55 35.5167 47.55H12.3875V4.45005H24.4166V17.225V18.4483L25.2735 17.5753L29.3333 13.4389L33.3931 17.5753L34.25 18.4483V17.225V4.45005H35.9583C36.8103 4.45005 37.6666 5.14959 37.6666 6.20005V45.3ZM9.17915 47.55H5.26248C4.41046 47.55 3.55415 46.8505 3.55415 45.8V6.20005C3.55415 5.30902 4.25399 4.45005 5.26248 4.45005H9.17915V47.55Z" fill="#0D52A1" stroke="#0D52A1"/>
</svg>
