<svg width="41" height="41" viewBox="0 0 41 41" fill="none" xmlns="http://www.w3.org/2000/svg">
<path d="M34.9964 6.00357C31.1161 2.12321 25.9911 0 20.5 0C15.0089 0 9.88393 2.12321 6.00357 6.00357C2.12321 9.88393 0 15.0089 0 20.5C0 25.9911 2.12321 31.1161 6.00357 34.9964C9.88393 38.8768 15.0089 41 20.5 41C25.9911 41 31.1161 38.8768 34.9964 34.9964C38.8768 31.1161 41 25.9911 41 20.5C41 15.0089 38.8768 9.88393 34.9964 6.00357ZM20.5 7.90714C21.8179 7.90714 22.9161 9.00536 22.9161 10.3232C22.9161 11.6411 21.8179 12.7393 20.5 12.7393C19.1821 12.7393 18.0839 11.6411 18.0839 10.3232C18.0839 9.00536 19.1821 7.90714 20.5 7.90714ZM24.3804 31.6286H17.5714C16.7661 31.6286 16.1071 30.9696 16.1071 30.1643C16.1071 29.3589 16.7661 28.7 17.5714 28.7H19.475V18.0839H19.0357C18.2304 18.0839 17.5714 17.425 17.5714 16.6196C17.5714 15.8143 18.2304 15.1554 19.0357 15.1554H20.9393C21.7446 15.1554 22.4036 15.8143 22.4036 16.6196V28.7H24.3071C25.1125 28.7 25.7714 29.3589 25.7714 30.1643C25.7714 30.9696 25.1857 31.6286 24.3804 31.6286Z" fill="white"/>
</svg>
