<svg width="44" height="45" viewBox="0 0 44 45" fill="none" xmlns="http://www.w3.org/2000/svg">
<path d="M38.4062 0.375H28.4688C25.7525 0.375 23.3675 1.725 21.8438 3.8175C20.32 1.725 17.935 0.375 15.2188 0.375H5.28125C2.53188 0.375 0.3125 2.63625 0.3125 5.4375V32.4375C0.3125 35.2387 2.53188 37.5 5.28125 37.5H15.2188C17.9681 37.5 20.1875 39.7612 20.1875 42.5625C20.1875 43.5075 20.9163 44.25 21.8438 44.25C22.7712 44.25 23.5 43.5075 23.5 42.5625C23.5 39.7612 25.7194 37.5 28.4688 37.5H38.4062C41.1556 37.5 43.375 35.2387 43.375 32.4375V5.4375C43.375 2.63625 41.1556 0.375 38.4062 0.375ZM20.1875 35.8125C18.7962 34.7662 17.0737 34.125 15.2188 34.125H5.28125C4.35375 34.125 3.625 33.3825 3.625 32.4375V5.4375C3.625 4.4925 4.35375 3.75 5.28125 3.75H15.2188C17.9681 3.75 20.1875 6.01125 20.1875 8.8125V35.8125ZM40.0625 32.4375C40.0625 33.3825 39.3338 34.125 38.4062 34.125H28.4688C26.6138 34.125 24.8913 34.7662 23.5 35.8125V8.8125C23.5 6.01125 25.7194 3.75 28.4688 3.75H38.4062C39.3338 3.75 40.0625 4.4925 40.0625 5.4375V32.4375Z" fill="#0D52A1"/>
</svg>
