<svg width="46" height="35" viewBox="0 0 46 35" fill="none" xmlns="http://www.w3.org/2000/svg">
<path d="M37.9651 13.8319C38.4013 14.0491 38.7631 14.1769 39.0769 14.3115L39.0881 14.3164C39.6809 14.5721 40.1014 14.8566 40.5273 15.8269C41.1233 17.1849 40.8165 20.0525 41.4188 23.1943C42.201 23.3754 42.7226 24.3982 42.6735 24.9264C42.625 25.4549 42.5783 25.3868 42.4667 25.5823L45.9535 33.9385L41.2866 34.9753L40.534 26.3215C39.8269 26.0897 39.3616 25.254 39.4194 24.6284C39.4773 24.0028 39.7167 23.7314 40.0809 23.466C39.4927 20.3942 39.8178 17.602 39.2766 16.3681C38.8046 15.2921 37.1063 14.7847 35.8423 14.2827C31.4385 12.5335 27.045 10.8691 22.6008 9.43156C21.2188 8.98448 22.399 6.96332 24.7582 8.00407L37.9651 13.8319Z" fill="white"/>
<path d="M23.0822 1.001L45.9383 8.47904L46 9.49649L39.2822 13.2512C34.5151 11.3187 29.7696 9.33212 24.9808 7.45344C20.5069 5.69837 20.1153 9.07576 21.4548 9.65565L34.5653 15.3314L23.1446 20.3682C22.9983 20.4328 22.8445 20.437 22.7007 20.3677L0 9.49601L0.0620573 8.4792L22.7624 1.0011C22.8705 0.965598 22.9733 0.967965 23.0822 1.001Z" fill="white"/>
<path d="M8.59834 15.9214L7.89358 26.4927C7.88761 26.5817 7.92379 26.6642 7.99889 26.7218C8.07394 26.7795 8.17012 26.7968 8.26032 26.7745C13.2825 25.5266 18.7706 28.0286 22.7477 33.5165C22.8206 33.6178 23.0239 33.6178 23.0973 33.5165C27.0743 28.0284 32.562 25.5267 37.5842 26.7745C37.6747 26.7968 37.7705 26.7795 37.8456 26.7218C37.9211 26.6642 37.9568 26.5833 37.9512 26.4927L37.249 15.9582L23.9195 21.8367C23.278 22.1195 22.562 22.1187 21.9214 21.8342L8.59834 15.9214Z" fill="white"/>
</svg>
