<svg width="47" height="54" viewBox="0 0 47 54" fill="none" xmlns="http://www.w3.org/2000/svg">
<path d="M20.8595 10.6962H6.90947C5.30491 10.6962 4.02709 12.3238 4.02709 13.8795V47.6892C4.02709 49.2457 5.32964 50.5072 6.93332 50.5072H32.5092C34.1137 50.5072 35.8905 49.1666 35.8905 47.61V25.5375H39.3778V47.6892C39.3778 51.1316 36.0415 54 32.5092 54H6.93332C3.40187 54 0.539795 51.2108 0.539795 47.7684V13.8003C0.539795 10.3579 3.37714 7.20335 6.90947 7.20335H20.8595V10.6962ZM26.158 28.8665C27.1215 28.8593 27.9083 29.6349 27.9154 30.5994C27.9233 31.564 27.148 32.3521 26.1845 32.3593H11.0467C10.0842 32.3665 9.29733 31.5909 9.28938 30.6264C9.28232 29.6619 10.0577 28.8737 11.0202 28.8665H26.1589H26.158ZM23.7711 18.0246C24.7336 18.0174 25.5205 18.7939 25.5284 19.7584C25.5355 20.7229 24.7601 21.5111 23.7976 21.5183H10.984C10.0206 21.5255 9.23375 20.7499 9.22668 19.7845C9.21874 18.82 9.99408 18.0327 10.9575 18.0255H23.7711V18.0246ZM16.9404 38.689C17.903 38.6818 18.6898 39.4574 18.6978 40.4228C18.7048 41.3874 17.9295 42.1746 16.9669 42.1818H11.128C10.1654 42.1899 9.37769 41.4135 9.37063 40.4489C9.36356 39.4844 10.1389 38.6962 11.1015 38.689H16.9404ZM29.6656 1.76349V7.58575C29.6736 8.55027 28.8982 9.33845 27.9348 9.34565C26.9722 9.35285 26.1863 8.57637 26.1783 7.61184V1.76439C26.1783 0.798968 26.959 0.0170898 27.9224 0.0170898C28.885 0.0170898 29.6665 0.799868 29.6665 1.76349H29.6656ZM44.7134 20.6401H38.9009C37.9384 20.6401 37.1568 19.8574 37.1568 18.8928C37.1568 17.9283 37.9375 17.1464 38.9009 17.1464H44.7134C45.6759 17.1464 46.4575 17.9283 46.4575 18.8919C46.4575 19.8574 45.6768 20.6392 44.7134 20.6392V20.6401ZM41.4813 5.89153C41.6432 6.05217 41.7719 6.24419 41.8598 6.45629C41.9477 6.66838 41.9931 6.89626 41.9933 7.1265C41.9934 7.35673 41.9484 7.58468 41.8608 7.7969C41.7731 8.00913 41.6447 8.20134 41.4831 8.36223L37.3688 12.4795C37.0279 12.795 36.5794 12.9624 36.1191 12.9457C35.6588 12.9291 35.2231 12.7298 34.905 12.3904C34.6052 12.0697 34.438 11.6438 34.438 11.2009C34.438 10.7581 34.6052 10.3322 34.905 10.0115L39.0131 5.89153C39.3427 5.56429 39.7848 5.38117 40.245 5.38117C40.7052 5.38117 41.1472 5.56429 41.4769 5.89153H41.4822H41.4813Z" fill="#0D52A1"/>
</svg>
