<svg width="44" height="45" viewBox="0 0 44 45" fill="none" xmlns="http://www.w3.org/2000/svg">
<path d="M40.4844 27.8828H35.2031V23.8457C35.2031 22.3603 34.0199 21.1543 32.5625 21.1543H23.3203V17.1172H27.2813C28.7387 17.1172 29.9219 15.9112 29.9219 14.4258V3.66016C29.9219 2.17471 28.7387 0.96875 27.2813 0.96875H16.7188C15.2613 0.96875 14.0781 2.17471 14.0781 3.66016V14.4258C14.0781 15.9112 15.2613 17.1172 16.7188 17.1172H20.6797V21.1543H11.4375C9.98008 21.1543 8.79688 22.3603 8.79688 23.8457V27.8828H3.51563C2.0582 27.8828 0.875 29.0888 0.875 30.5742V41.3398C0.875 42.8253 2.0582 44.0313 3.51563 44.0313H14.0781C15.5355 44.0313 16.7188 42.8253 16.7188 41.3398V30.5742C16.7188 29.0888 15.5355 27.8828 14.0781 27.8828H11.4375V23.8457H32.5625V27.8828H29.9219C28.4645 27.8828 27.2813 29.0888 27.2813 30.5742V41.3398C27.2813 42.8253 28.4645 44.0313 29.9219 44.0313H40.4844C41.9418 44.0313 43.125 42.8253 43.125 41.3398V30.5742C43.125 29.0888 41.9418 27.8828 40.4844 27.8828ZM16.7188 14.4258V3.66016H27.2813V14.4258H16.7188ZM14.0781 30.5742V41.3398H3.51563V30.5742H14.0781ZM40.4844 41.3398H29.9219V30.5742H40.4844V41.3398Z" fill="#0D52A1"/>
</svg>
