<svg width="52" height="54" viewBox="0 0 52 54" fill="none" xmlns="http://www.w3.org/2000/svg">
<path d="M34.7732 9.22798C34.7732 4.15262 30.7506 0 25.8343 0C20.9183 0 16.8954 4.15267 16.8954 9.22798C16.8954 14.3032 20.9179 18.4555 25.8347 18.4555C30.7507 18.4555 34.7732 14.3032 34.7732 9.22793V9.22798ZM25.8343 15.0379C22.7389 15.0379 20.2063 12.4232 20.2063 9.22787C20.2063 6.03233 22.7389 3.41761 25.8343 3.41761C28.93 3.41761 31.4626 6.03233 31.4626 9.22787C31.4626 12.4235 28.93 15.0379 25.8343 15.0379ZM50.4915 35.2843H45.6384L38.2907 21.2585C38.0577 20.2958 36.9497 19.5731 35.7831 19.5731H16.5475C15.3809 19.5731 14.2732 20.2958 14.0399 21.2589L6.69248 35.284H1.50828C0.866865 35.284 0.342041 36.1675 0.342041 36.8301C0.342041 37.4923 0.866865 38.7176 1.50864 38.7176H5.00701V52.7952C5.00701 53.4575 5.53178 53.9996 6.1736 53.9996H45.8266C46.4681 53.9996 46.9929 53.4575 46.9929 52.7952V38.7176H50.4916C51.133 38.7176 51.6578 37.4923 51.6578 36.8301C51.6578 36.1679 51.133 35.2847 50.4912 35.2847L50.4915 35.2843ZM17.5218 22.7847C17.58 22.7243 17.6967 22.6643 17.8718 22.6643H34.4591C34.5754 22.6643 34.6924 22.7247 34.8091 22.7847C34.8091 22.8451 34.8673 22.8451 34.8673 22.9052L41.7483 35.2836H37.1416L32.5348 26.9562C32.3599 26.2937 30.725 25.9927 30.1421 26.1732C29.5588 26.3541 28.878 27.0763 29.0528 27.6781L33.3682 35.2836H18.9628L23.2781 27.6785C23.4529 27.0166 22.8303 26.3544 22.1888 26.1736C21.6056 25.9931 19.971 26.2943 19.7962 26.9562L15.1893 35.284H10.5826L17.4637 22.9056C17.4637 22.8452 17.5219 22.8452 17.5219 22.7851L17.5218 22.7847ZM8.28468 50.5851V38.8188H43.7131V50.5851H8.28432H8.28468Z" fill="#0D52A1"/>
</svg>
