<svg width="50" height="53" viewBox="0 0 50 53" fill="none" xmlns="http://www.w3.org/2000/svg">
<path d="M42.061 7.64256C39.7475 5.22085 36.9951 3.29872 33.9627 1.98702C30.9304 0.675322 27.6779 0 24.393 0C21.108 0 17.8556 0.675322 14.8232 1.98702C11.7908 3.29872 9.03851 5.22085 6.72495 7.64256C5.06091 9.38138 3.64086 11.3548 2.50659 13.5047C2.26139 13.9737 2.20305 14.5238 2.3441 15.0369C2.44671 15.4171 2.65638 15.7568 2.94622 16.0124C3.23605 16.268 3.59281 16.4278 3.97073 16.4713C4.34864 16.5148 4.73046 16.4401 5.06717 16.2567C5.40389 16.0733 5.68014 15.7895 5.86048 15.4419C6.82249 13.6225 8.02588 11.9525 9.43536 10.4808C11.3937 8.43015 13.7237 6.80246 16.291 5.69167C18.8582 4.58089 21.6118 4.009 24.393 4.009C27.1741 4.009 29.9278 4.58089 32.495 5.69167C35.0622 6.80246 37.3922 8.43015 39.3506 10.4808C43.3277 14.6404 45.5531 20.2686 45.5384 26.1302C45.5531 31.9918 43.3277 37.62 39.3506 41.7795C37.392 43.8298 35.0619 45.4572 32.4947 46.5677C29.9275 47.6782 27.174 48.25 24.393 48.25C21.612 48.25 18.8584 47.6782 16.2912 46.5677C13.724 45.4572 11.394 43.8298 9.43536 41.7795C8.3304 40.6253 7.35218 39.3496 6.51046 37.9659C6.35961 37.7172 6.15762 37.5063 5.91898 37.3483L8.97063 34.6349L0.618408 32.9913V42.0698L3.13382 39.8289C3.17377 39.9273 3.2216 40.0222 3.27682 40.1123C4.26479 41.7424 5.42175 43.251 6.7217 44.6144C9.03531 47.0367 11.7878 48.9592 14.8205 50.2712C17.8532 51.5832 21.106 52.2587 24.3914 52.2587C27.6767 52.2587 30.9295 51.5832 33.9622 50.2712C36.9949 48.9592 39.7474 47.0367 42.061 44.6144C46.7571 39.7007 49.3845 33.0531 49.3668 26.1302C49.3857 19.206 46.7582 12.557 42.061 7.64256ZM39.5424 17.9697C39.4455 18.4456 39.1842 18.8681 38.8079 19.1577L25.2558 29.5962C25.0381 29.7643 24.7884 29.8823 24.5233 29.9422C24.2583 30.0022 23.9839 30.0027 23.7186 29.9438L10.6443 26.9975C10.3995 26.9416 10.1681 26.8351 9.96372 26.6843C9.75937 26.5336 9.58632 26.3417 9.45486 26.1201C9.18248 25.6652 9.09155 25.118 9.20137 24.5946C9.31055 24.0864 9.60711 23.6427 10.0275 23.3589C10.4479 23.075 10.9586 22.9734 11.4503 23.0759L23.6796 25.8332L36.533 15.9279C36.7352 15.7712 36.9655 15.6578 37.2103 15.5943C37.4552 15.5309 37.7097 15.5185 37.9592 15.5581C38.2087 15.5977 38.4481 15.6883 38.6635 15.8248C38.8789 15.9613 39.0661 16.1409 39.2141 16.3531C39.3747 16.5831 39.487 16.8455 39.5435 17.1235C39.6001 17.4014 39.5997 17.6886 39.5424 17.9663" fill="#0D52A1"/>
</svg>
