<svg width="30" height="37" viewBox="0 0 30 37" fill="none" xmlns="http://www.w3.org/2000/svg">
<path d="M28.8462 4.36646C28.1538 4.36646 27.6923 4.82609 27.6923 5.51553V32.1739C27.6923 33.323 26.5385 34.472 25.3846 34.472H5.07692C3.69231 34.472 2.07692 33.323 2.07692 32.1739V29.646C2.07692 28.4969 3.46154 27.8075 4.84615 27.8075H24.2308C24.9231 27.8075 25.3846 27.3478 25.3846 26.6584V4.13665C25.3846 1.6087 23.5385 0 20.7692 0H5.07692C2.53846 0 0 1.37888 0 4.13665V32.4037C0 32.4037 0 32.4037 0 32.6335C0 32.8634 0 32.8634 0 33.0932C0.230769 35.1615 2.30769 36.7702 4.38462 37H4.61538C4.61538 37 4.61538 37 4.84615 37H25.3846C27.9231 37 30 34.9317 30 32.6335V5.51553C30 5.0559 29.5385 4.36646 28.8462 4.36646ZM24.4615 30.1056H5.53846C4.84615 30.1056 4.38462 30.5652 4.38462 31.2547C4.38462 31.9441 4.84615 32.4037 5.53846 32.4037H24.4615C25.1538 32.4037 25.6154 31.9441 25.6154 31.2547C25.6154 30.5652 25.1538 30.1056 24.4615 30.1056Z" fill="white"/>
</svg>
