<svg width="45" height="40" viewBox="0 0 45 40" fill="none" xmlns="http://www.w3.org/2000/svg">
<path d="M43.6391 15.6467L35.5057 9.56556C35.5057 9.55693 35.51 9.55262 35.51 9.5483V3.08336C35.51 2.98416 35.4276 2.90222 35.3278 2.90222H31.3197C31.2199 2.90222 31.1375 2.98416 31.1375 3.08336V6.30074L23.2167 0.383519C22.9 0.146313 22.5226 0.0212402 22.1279 0.0212402C21.7288 0.0212402 21.3514 0.146313 21.0348 0.387832L0.720809 15.638C0.334744 15.927 0.0874889 16.3497 0.018084 16.8284C-0.0730099 17.4667 0.182921 18.1007 0.720809 18.5233C0.907334 18.6656 1.11989 18.7692 1.34979 18.8252C1.91371 18.9632 2.46894 18.8511 2.9114 18.519L21.9023 4.25645C22.0368 4.15725 22.2233 4.15725 22.3534 4.25645L41.5179 18.5751C41.8345 18.8123 42.2119 18.9374 42.6067 18.9374C43.2009 18.9374 43.7475 18.657 44.0902 18.174C44.6671 17.3632 44.4329 16.2375 43.6391 15.6467Z" fill="white"/>
<path d="M39.3273 19.386L30.9467 13.348L22.4142 7.2022C22.2667 7.09438 22.0629 7.09438 21.9154 7.2022L13.3873 13.348L5.00661 19.386C4.7637 19.5628 4.61621 19.8431 4.61621 20.145V37.0557C4.61621 38.5867 5.87417 39.8375 7.4141 39.8375H18.1155V28.7362C18.1155 27.4424 19.1826 26.3814 20.4839 26.3814H23.8457C25.147 26.3814 26.2141 27.4424 26.2141 28.7362V39.8375H36.9155C38.4554 39.8375 39.7134 38.5867 39.7134 37.0557V20.145C39.7177 19.8475 39.5702 19.5628 39.3273 19.386V19.386Z" fill="white"/>
</svg>
