<svg width="337" height="72" viewBox="0 0 337 72" fill="none" xmlns="http://www.w3.org/2000/svg">
    <path d="M8.208 8.48H14.112V6.296H16.632V8.48H23.016V10.856H16.632V12.584H22.128V19.88H16.512C16.32 21.8 15.968 23.288 15.456 24.344C17.712 25.48 20.272 26.12 23.136 26.264L22.536 28.664C19.336 28.456 16.504 27.672 14.04 26.312C12.728 27.496 10.72 28.272 8.016 28.64L6.936 26.36C9.08 26.184 10.704 25.68 11.808 24.848C10.512 23.872 9.368 22.768 8.376 21.536L10.296 20.216C11.192 21.32 12.176 22.248 13.248 23C13.6 22.216 13.848 21.176 13.992 19.88H8.832V12.584H14.112V10.856H8.208V8.48ZM19.776 17.648V14.816H16.632V17.648H19.776ZM14.112 17.648V14.816H11.184V17.648H14.112ZM3.384 16.16C2.824 16.88 2.192 17.616 1.488 18.368L0.672 15.704C2.976 12.952 4.68 9.744 5.784 6.08L8.16 7.184C7.584 9.008 6.832 10.752 5.904 12.416V28.544H3.384V16.16ZM29.544 15.152V18.608H34.824V15.152H29.544ZM29.424 20.912C29.104 23.904 28.216 26.384 26.76 28.352L24.84 26.624C26.248 24.624 26.976 22.056 27.024 18.92V7.04H45.624V25.16C45.624 27.016 44.672 27.944 42.768 27.944H40.008L39.336 25.496C40.296 25.592 41.176 25.64 41.976 25.64C42.712 25.64 43.08 25.176 43.08 24.248V20.912H37.368V27.68H34.824V20.912H29.424ZM43.08 18.608V15.152H37.368V18.608H43.08ZM43.08 12.848V9.488H37.368V12.848H43.08ZM34.824 9.488H29.544V12.848H34.824V9.488ZM57.6722 8.864H65.3042C67.0802 8.864 68.4642 9.256 69.4562 10.04C70.5282 10.92 71.0642 12.168 71.0642 13.784C71.0642 14.664 70.8242 15.456 70.3442 16.16C69.8162 16.928 69.0882 17.432 68.1602 17.672V17.72C69.6482 18.056 70.4882 19.056 70.6802 20.72L70.9682 23.48C71.0642 24.52 71.4082 25.36 72.0002 26H68.9522C68.5522 25.488 68.3042 24.744 68.2082 23.768L67.9922 21.656C67.8962 20.712 67.6082 20.04 67.1282 19.64C66.6482 19.224 65.9122 19.016 64.9202 19.016H60.4802V26H57.6722V8.864ZM60.4802 11.264V16.616H64.9202C66.0082 16.616 66.8482 16.384 67.4402 15.92C67.9682 15.44 68.2322 14.768 68.2322 13.904C68.2322 12.96 67.9682 12.288 67.4402 11.888C66.9282 11.472 66.0882 11.264 64.9202 11.264H60.4802ZM79.4466 13.256C81.4946 13.256 83.0546 13.944 84.1266 15.32C85.1186 16.584 85.6146 18.328 85.6146 20.552H76.3266C76.4226 21.72 76.7346 22.6 77.2626 23.192C77.7906 23.8 78.5506 24.104 79.5426 24.104C80.3746 24.104 81.0546 23.912 81.5826 23.528C81.9826 23.224 82.3506 22.72 82.6866 22.016H85.4226C85.1346 23.184 84.5586 24.152 83.6946 24.92C82.5746 25.864 81.1986 26.336 79.5666 26.336C77.7266 26.336 76.2626 25.768 75.1746 24.632C74.0226 23.448 73.4466 21.832 73.4466 19.784C73.4466 17.928 73.9906 16.384 75.0786 15.152C76.1346 13.888 77.5906 13.256 79.4466 13.256ZM79.5186 15.488C78.6066 15.488 77.8946 15.744 77.3826 16.256C76.8866 16.752 76.5506 17.496 76.3746 18.488H82.7586C82.5186 16.488 81.4386 15.488 79.5186 15.488ZM94.1918 13.256C97.2958 13.256 98.8478 14.952 98.8478 18.344V26H96.1118V18.584C96.1118 16.552 95.1758 15.536 93.3038 15.536C92.6318 15.536 92.0398 15.776 91.5278 16.256C90.9518 16.784 90.6158 17.544 90.5198 18.536V26H87.7838V13.592H90.5198V15.032C91.0158 14.44 91.5598 14 92.1518 13.712C92.7598 13.408 93.4398 13.256 94.1918 13.256ZM107.369 13.256C109.209 13.256 110.561 13.712 111.425 14.624C112.193 15.408 112.577 16.56 112.577 18.08V26H110.033V24.368C109.553 24.992 108.953 25.472 108.233 25.808C107.401 26.16 106.473 26.336 105.449 26.336C104.169 26.336 103.153 26.008 102.401 25.352C101.633 24.68 101.249 23.784 101.249 22.664C101.249 21.112 101.857 19.952 103.073 19.184C104.097 18.528 105.449 18.2 107.129 18.2L109.841 18.176V17.888C109.841 16.272 108.953 15.464 107.177 15.464C106.361 15.464 105.721 15.616 105.257 15.92C104.729 16.256 104.417 16.768 104.321 17.456H101.609C101.801 15.952 102.433 14.856 103.505 14.168C104.417 13.56 105.705 13.256 107.369 13.256ZM109.841 20.264L107.321 20.288C105.145 20.288 104.057 21.056 104.057 22.592C104.057 23.024 104.225 23.4 104.561 23.72C104.913 24.024 105.417 24.176 106.073 24.176C107.209 24.176 108.129 23.872 108.833 23.264C109.505 22.64 109.841 21.808 109.841 20.768V20.264ZM117.311 8.528C117.855 8.528 118.303 8.696 118.655 9.032C119.007 9.384 119.183 9.816 119.183 10.328C119.183 10.872 118.999 11.312 118.631 11.648C118.279 11.984 117.839 12.152 117.311 12.152C116.799 12.152 116.359 11.984 115.991 11.648C115.639 11.296 115.463 10.856 115.463 10.328C115.463 9.8 115.639 9.368 115.991 9.032C116.359 8.696 116.799 8.528 117.311 8.528ZM115.943 13.592H118.679V26H115.943V13.592ZM130.305 8.864H133.113V26H130.305V8.864ZM136.469 8.864H142.733C145.501 8.864 147.605 9.632 149.045 11.168C150.421 12.624 151.109 14.712 151.109 17.432C151.109 20.136 150.421 22.224 149.045 23.696C147.605 25.232 145.501 26 142.733 26H136.469V8.864ZM139.277 11.264V23.6H142.205C144.333 23.6 145.893 23.104 146.885 22.112C147.845 21.104 148.325 19.544 148.325 17.432C148.325 15.256 147.845 13.688 146.885 12.728C145.909 11.752 144.349 11.264 142.205 11.264H139.277ZM165.167 16.328H179.039V22.568H165.167V16.328ZM176.519 20.36V18.512H167.687V20.36H176.519ZM167.855 22.712C168.607 23.496 169.303 24.424 169.943 25.496H174.479C175.119 24.632 175.703 23.68 176.231 22.64L178.559 23.48C178.127 24.2 177.671 24.872 177.191 25.496H182.423V27.872H161.639V25.496H167.279C166.815 24.872 166.223 24.24 165.503 23.6L167.855 22.712ZM164.087 9.488C165.271 10.352 166.239 11.144 166.991 11.864C167.807 11.064 168.487 10.2 169.031 9.272H163.583V6.968H171.863V8.84C171.319 10.232 170.575 11.48 169.631 12.584H175.583C174.111 10.968 172.967 9.248 172.151 7.424L174.239 6.272C174.623 7.152 175.079 7.992 175.607 8.792C176.455 8.12 177.175 7.4 177.767 6.632L179.519 8.192C178.783 9.088 177.927 9.888 176.951 10.592C177.287 11.008 177.719 11.456 178.247 11.936C179.207 11.216 180.063 10.36 180.815 9.368L182.567 10.904C181.863 11.8 181.015 12.632 180.023 13.4C181.143 14.216 182.311 14.928 183.527 15.536L181.871 17.456C179.983 16.384 178.351 15.224 176.975 13.976V14.864H168.167V14.096C166.647 15.424 164.751 16.56 162.479 17.504L160.943 15.536C162.591 14.896 164.023 14.152 165.239 13.304C164.423 12.568 163.479 11.824 162.407 11.072L164.087 9.488ZM188.087 6.992H202.391V14.744H206.447V17.024H202.727L204.623 18.584C203.359 20.152 201.943 21.36 200.375 22.208C202.103 23.472 204.167 24.616 206.567 25.64L205.295 27.848C201.919 26.264 199.207 24.36 197.159 22.136V25.976C197.159 27.672 196.423 28.52 194.951 28.52H192.143L191.591 26.168C192.599 26.28 193.439 26.336 194.111 26.336C194.479 26.336 194.663 26.016 194.663 25.376V22.232C192.343 24.264 189.567 26.12 186.335 27.8L185.327 25.472C188.927 23.84 192.039 21.904 194.663 19.664V17.024H185.687V14.744H199.847V13.088H188.903V10.928H199.847V9.248H188.087V6.992ZM188.687 17.384C190.079 18.344 191.255 19.304 192.215 20.264L190.583 21.896C189.767 21.016 188.583 20.04 187.031 18.968L188.687 17.384ZM197.159 17.024V19.376C197.575 19.84 198.079 20.328 198.671 20.84C200.223 19.912 201.559 18.64 202.679 17.024H197.159ZM219.599 9.848C219.407 10.296 219.255 10.624 219.143 10.832H225.263V12.488C224.703 13.592 223.807 14.6 222.575 15.512C224.015 16.12 225.655 16.632 227.495 17.048L226.199 18.92C224.023 18.344 222.127 17.624 220.511 16.76C218.703 17.672 216.487 18.416 213.863 18.992L212.783 17C215.039 16.632 216.943 16.144 218.495 15.536C217.775 15.008 217.167 14.504 216.671 14.024C216.047 14.584 215.335 15.112 214.535 15.608L213.167 13.784C215.247 12.616 216.647 11.208 217.367 9.56L219.599 9.848ZM220.559 14.528C221.471 13.952 222.207 13.312 222.767 12.608H217.991C217.959 12.64 217.943 12.664 217.943 12.68C218.743 13.384 219.615 14 220.559 14.528ZM215.975 21.008C219.159 21.568 222.183 22.344 225.047 23.336L224.231 25.376C221.239 24.288 218.159 23.448 214.991 22.856L215.975 21.008ZM218.375 17.792C220.359 18.352 222.135 19.008 223.703 19.76L222.551 21.536C220.839 20.64 219.079 19.936 217.271 19.424L218.375 17.792ZM230.183 7.112V28.496H227.735V27.704H212.375V28.496H209.927V7.112H230.183ZM212.375 25.496H227.735V9.32H212.375V25.496ZM241.487 6.176H244.007V10.136H251.063V11.336L250.607 16.568H253.943C253.911 21.464 253.495 24.312 252.695 25.112C252.359 25.464 251.863 25.712 251.207 25.856C250.615 25.968 250.015 26.04 249.407 26.072H247.871L247.199 23.72L249.839 23.744C250.383 23.696 250.783 23.52 251.039 23.216C251.279 22.912 251.423 21.504 251.471 18.992H244.007V28.544H241.487V18.992H233.303V16.568H241.487V12.536H234.695V10.136H241.487V6.176ZM244.007 16.568H248.183L248.543 12.536H244.007V16.568ZM249.935 6.224C251.711 7.056 253.303 8.016 254.711 9.104L253.367 11.192C251.831 9.896 250.263 8.872 248.663 8.12L249.935 6.224ZM278.447 8.504V13.256H277.103V18.944H269.375V20.624H277.727V28.496H275.399V27.44H269.375V28.472H267.023V13.256H265.727V8.504H270.743C270.519 7.816 270.255 7.16 269.951 6.536L272.399 6.152C272.655 6.824 272.903 7.608 273.143 8.504H278.447ZM268.079 12.32H276.095V10.76H268.079V12.32ZM269.375 22.784V25.28H275.399V22.784H269.375ZM269.375 16.856H274.751V14.432H269.375V16.856ZM260.687 12.416C260.063 14.304 259.279 15.896 258.335 17.192L256.703 15.2C258.095 13.024 259.031 10.104 259.511 6.44L261.959 6.848C261.719 8.272 261.511 9.36 261.335 10.112H265.175V12.056C264.615 13.512 263.999 14.72 263.327 15.68L261.551 14.264C261.935 13.736 262.279 13.12 262.583 12.416H260.687ZM259.943 15.2H262.343V24.92C263.255 24.36 264.095 23.696 264.863 22.928L265.343 25.256C263.855 26.424 262.175 27.376 260.303 28.112L259.319 26.024C259.735 25.736 259.943 25.312 259.943 24.752V15.2ZM288.503 28.424L287.927 25.976C288.903 26.088 289.719 26.144 290.375 26.144C290.839 26.144 291.071 25.888 291.071 25.376V20.288C288.335 20.464 285.895 20.6 283.751 20.696L283.055 18.512C283.871 18.432 284.591 18.28 285.215 18.056C286.911 17.32 288.751 16.232 290.735 14.792C289.343 14.904 287.367 15.032 284.807 15.176L284.303 12.992C284.911 12.912 285.471 12.76 285.983 12.536C286.815 12.136 287.855 11.24 289.103 9.848C286.607 9.912 284.671 9.944 283.295 9.944L282.575 7.784C289.391 7.784 295.223 7.336 300.071 6.44L301.295 8.528C298.719 9.056 295.687 9.44 292.199 9.68C291.031 11.056 289.815 12.192 288.551 13.088C289.687 13.024 291.279 12.912 293.327 12.752C294.223 12.016 295.239 11.128 296.375 10.088L298.679 11.216C294.951 14.416 291.719 16.808 288.983 18.392C292.295 18.168 295.039 17.92 297.215 17.648C296.879 17.2 296.359 16.528 295.655 15.632L297.503 14.48C299.519 16.832 301.047 18.872 302.087 20.6L300.095 21.968C299.775 21.408 299.287 20.632 298.631 19.64C297.351 19.784 295.671 19.936 293.591 20.096V26C293.591 27.616 292.807 28.424 291.239 28.424H288.503ZM296.807 21.104C299.207 22.864 301.191 24.576 302.759 26.24L300.983 28.016C299.591 26.368 297.647 24.6 295.151 22.712L296.807 21.104ZM288.791 22.832C287.159 24.8 285.159 26.496 282.791 27.92L281.231 25.88C283.503 24.584 285.439 23.048 287.039 21.272L288.791 22.832ZM313.223 24.872C310.967 26.008 308.487 26.904 305.783 27.56L305.471 25.064C308.399 24.424 310.983 23.568 313.223 22.496V24.872ZM311.303 7.112C310.215 9.848 309.087 12.12 307.919 13.928C308.639 13.848 309.359 13.752 310.079 13.64L311.351 11.144L313.583 12.008C311.711 15.528 310.151 18.144 308.903 19.856C310.279 19.488 311.719 18.968 313.223 18.296V20.6C310.615 21.688 308.135 22.416 305.783 22.784L305.111 20.48C305.575 20.288 305.951 20.048 306.239 19.76C306.911 19.04 307.775 17.768 308.831 15.944C308.127 16.04 307.039 16.2 305.567 16.424L304.943 14.12C305.343 13.944 305.703 13.624 306.023 13.16C307.127 11.048 308.087 8.72 308.903 6.176L311.303 7.112ZM313.367 14.984C313.559 14.92 313.719 14.856 313.847 14.792C314.535 14.248 315.415 12.968 316.487 10.952H312.911V8.576H318.671C318.367 7.76 318.071 7.08 317.783 6.536L320.327 6.104C320.599 6.76 320.887 7.584 321.191 8.576H326.399V10.952H319.103C318.271 12.52 317.503 13.784 316.799 14.744C318.511 14.584 320.311 14.352 322.199 14.048L320.903 12.248L322.823 11.048C324.391 13.08 325.591 14.856 326.423 16.376L324.479 17.744C324.127 17.104 323.815 16.568 323.543 16.136C320.471 16.584 317.255 16.936 313.895 17.192L313.367 14.984ZM318.047 17.816C317.903 20.92 317.527 23.16 316.919 24.536C316.215 26.072 315.055 27.384 313.439 28.472L311.831 26.456C313.159 25.592 314.103 24.584 314.663 23.432C315.191 22.296 315.503 20.424 315.599 17.816H318.047ZM323.015 28.064C321.223 28.064 320.327 27.28 320.327 25.712V17.528H322.703V25.208C322.703 25.576 322.831 25.792 323.087 25.856H324.359C324.759 25.808 324.983 25.48 325.031 24.872C325.095 24.008 325.127 23.128 325.127 22.232L327.263 23C327.263 25.256 327.087 26.664 326.735 27.224C326.415 27.688 325.663 27.968 324.479 28.064H323.015Z" fill="#0D52A1"/>
    <path d="M44.68 45.864H52.312C54.088 45.864 55.472 46.256 56.464 47.04C57.536 47.92 58.072 49.168 58.072 50.784C58.072 51.664 57.832 52.456 57.352 53.16C56.824 53.928 56.096 54.432 55.168 54.672V54.72C56.656 55.056 57.496 56.056 57.688 57.72L57.976 60.48C58.072 61.52 58.416 62.36 59.008 63H55.96C55.56 62.488 55.312 61.744 55.216 60.768L55 58.656C54.904 57.712 54.616 57.04 54.136 56.64C53.656 56.224 52.92 56.016 51.928 56.016H47.488V63H44.68V45.864ZM47.488 48.264V53.616H51.928C53.016 53.616 53.856 53.384 54.448 52.92C54.976 52.44 55.24 51.768 55.24 50.904C55.24 49.96 54.976 49.288 54.448 48.888C53.936 48.472 53.096 48.264 51.928 48.264H47.488ZM66.4544 50.256C68.5024 50.256 70.0624 50.944 71.1344 52.32C72.1264 53.584 72.6224 55.328 72.6224 57.552H63.3344C63.4304 58.72 63.7424 59.6 64.2704 60.192C64.7984 60.8 65.5584 61.104 66.5504 61.104C67.3824 61.104 68.0624 60.912 68.5904 60.528C68.9904 60.224 69.3584 59.72 69.6944 59.016H72.4304C72.1424 60.184 71.5664 61.152 70.7024 61.92C69.5824 62.864 68.2064 63.336 66.5744 63.336C64.7344 63.336 63.2704 62.768 62.1824 61.632C61.0304 60.448 60.4544 58.832 60.4544 56.784C60.4544 54.928 60.9984 53.384 62.0864 52.152C63.1424 50.888 64.5984 50.256 66.4544 50.256ZM66.5264 52.488C65.6144 52.488 64.9024 52.744 64.3904 53.256C63.8944 53.752 63.5584 54.496 63.3824 55.488H69.7664C69.5264 53.488 68.4464 52.488 66.5264 52.488ZM79.9516 50.256C81.5036 50.256 82.7276 50.872 83.6236 52.104V50.592H86.3596V62.208C86.3596 66.128 84.4156 68.088 80.5276 68.088C78.7996 68.088 77.4716 67.768 76.5436 67.128C75.6316 66.456 75.0556 65.432 74.8156 64.056H77.5516C77.6956 64.744 77.9916 65.232 78.4396 65.52C78.8876 65.792 79.5836 65.928 80.5276 65.928C82.5916 65.928 83.6236 64.824 83.6236 62.616V60.792C82.7116 62.072 81.4876 62.712 79.9516 62.712C78.2716 62.712 76.9116 62.152 75.8716 61.032C74.8316 59.928 74.3116 58.424 74.3116 56.52C74.3116 54.632 74.8316 53.12 75.8716 51.984C76.9116 50.832 78.2716 50.256 79.9516 50.256ZM80.3836 52.464C79.3596 52.464 78.5596 52.824 77.9836 53.544C77.4076 54.232 77.1196 55.224 77.1196 56.52C77.1196 57.704 77.3436 58.624 77.7916 59.28C78.3196 60.08 79.1756 60.48 80.3596 60.48C81.3996 60.48 82.2156 60.136 82.8076 59.448C83.3676 58.712 83.6476 57.736 83.6476 56.52C83.6476 55.272 83.3676 54.28 82.8076 53.544C82.2316 52.824 81.4236 52.464 80.3836 52.464ZM91.0771 45.528C91.6211 45.528 92.0691 45.696 92.4211 46.032C92.7731 46.384 92.9491 46.816 92.9491 47.328C92.9491 47.872 92.7651 48.312 92.3971 48.648C92.0451 48.984 91.6051 49.152 91.0771 49.152C90.5651 49.152 90.1251 48.984 89.7571 48.648C89.4051 48.296 89.2291 47.856 89.2291 47.328C89.2291 46.8 89.4051 46.368 89.7571 46.032C90.1251 45.696 90.5651 45.528 91.0771 45.528ZM89.7091 50.592H92.4451V63H89.7091V50.592ZM100.518 50.256C103.798 50.256 105.582 51.568 105.87 54.192H103.206C103.014 53.552 102.726 53.112 102.342 52.872C101.942 52.616 101.318 52.488 100.47 52.488C99.7344 52.488 99.1904 52.592 98.8384 52.8C98.4224 53.008 98.2144 53.352 98.2144 53.832C98.2144 54.232 98.5424 54.576 99.1984 54.864C99.6144 55.04 100.438 55.28 101.67 55.584C103.11 55.936 104.15 56.328 104.79 56.76C105.782 57.384 106.278 58.256 106.278 59.376C106.278 62.016 104.414 63.336 100.686 63.336C97.2464 63.336 95.3904 61.88 95.1184 58.968H97.7824C97.9264 59.736 98.2064 60.296 98.6224 60.648C99.0544 60.952 99.7104 61.104 100.59 61.104C102.51 61.104 103.47 60.592 103.47 59.568C103.47 58.992 103.11 58.536 102.39 58.2C102.07 58.04 101.254 57.808 99.9424 57.504C98.4864 57.168 97.4544 56.808 96.8464 56.424C95.8864 55.816 95.4064 54.976 95.4064 53.904C95.4064 52.736 95.8784 51.848 96.8224 51.24C97.7344 50.584 98.9664 50.256 100.518 50.256ZM112.336 46.584V50.592H115.096V52.848H112.336V59.856C112.336 60.16 112.4 60.384 112.528 60.528C112.672 60.672 112.88 60.744 113.152 60.744H114.784V63H112.696C111.624 63 110.832 62.712 110.32 62.136C109.84 61.608 109.6 60.848 109.6 59.856V52.848H107.368V50.592H109.6V47.712L112.336 46.584ZM122.999 50.256C123.623 50.256 124.143 50.36 124.559 50.568V53.304C123.983 53.128 123.391 53.04 122.783 53.04C122.047 53.04 121.399 53.32 120.839 53.88C120.183 54.52 119.855 55.368 119.855 56.424V63H117.143V50.592H119.855V52.368C120.191 51.728 120.583 51.248 121.031 50.928C121.575 50.48 122.231 50.256 122.999 50.256ZM131.76 50.256C133.6 50.256 134.952 50.712 135.816 51.624C136.584 52.408 136.968 53.56 136.968 55.08V63H134.424V61.368C133.944 61.992 133.344 62.472 132.624 62.808C131.792 63.16 130.864 63.336 129.84 63.336C128.56 63.336 127.544 63.008 126.792 62.352C126.024 61.68 125.64 60.784 125.64 59.664C125.64 58.112 126.248 56.952 127.464 56.184C128.488 55.528 129.84 55.2 131.52 55.2L134.232 55.176V54.888C134.232 53.272 133.344 52.464 131.568 52.464C130.752 52.464 130.112 52.616 129.648 52.92C129.12 53.256 128.808 53.768 128.712 54.456H126C126.192 52.952 126.824 51.856 127.896 51.168C128.808 50.56 130.096 50.256 131.76 50.256ZM134.232 57.264L131.712 57.288C129.536 57.288 128.448 58.056 128.448 59.592C128.448 60.024 128.616 60.4 128.952 60.72C129.304 61.024 129.808 61.176 130.464 61.176C131.6 61.176 132.52 60.872 133.224 60.264C133.896 59.64 134.232 58.808 134.232 57.768V57.264ZM143.742 46.584V50.592H146.502V52.848H143.742V59.856C143.742 60.16 143.806 60.384 143.934 60.528C144.078 60.672 144.286 60.744 144.558 60.744H146.19V63H144.102C143.03 63 142.238 62.712 141.726 62.136C141.246 61.608 141.006 60.848 141.006 59.856V52.848H138.774V50.592H141.006V47.712L143.742 46.584ZM150.397 45.528C150.941 45.528 151.389 45.696 151.741 46.032C152.093 46.384 152.269 46.816 152.269 47.328C152.269 47.872 152.085 48.312 151.717 48.648C151.365 48.984 150.925 49.152 150.397 49.152C149.885 49.152 149.445 48.984 149.077 48.648C148.725 48.296 148.549 47.856 148.549 47.328C148.549 46.8 148.725 46.368 149.077 46.032C149.445 45.696 149.885 45.528 150.397 45.528ZM149.029 50.592H151.765V63H149.029V50.592ZM160.919 50.256C162.807 50.256 164.319 50.872 165.455 52.104C166.591 53.336 167.159 54.904 167.159 56.808C167.159 58.696 166.599 60.248 165.479 61.464C164.327 62.712 162.807 63.336 160.919 63.336C159.031 63.336 157.511 62.712 156.359 61.464C155.239 60.28 154.679 58.728 154.679 56.808C154.679 54.872 155.247 53.304 156.383 52.104C157.503 50.872 159.015 50.256 160.919 50.256ZM160.919 52.488C159.767 52.488 158.887 52.936 158.279 53.832C157.751 54.6 157.487 55.592 157.487 56.808C157.487 58.008 157.751 58.992 158.279 59.76C158.903 60.656 159.783 61.104 160.919 61.104C162.055 61.104 162.935 60.656 163.559 59.76C164.103 58.944 164.375 57.96 164.375 56.808C164.375 55.608 164.103 54.616 163.559 53.832C162.951 52.936 162.071 52.488 160.919 52.488ZM175.957 50.256C179.061 50.256 180.613 51.952 180.613 55.344V63H177.877V55.584C177.877 53.552 176.941 52.536 175.069 52.536C174.397 52.536 173.805 52.776 173.293 53.256C172.717 53.784 172.381 54.544 172.285 55.536V63H169.549V50.592H172.285V52.032C172.781 51.44 173.325 51 173.917 50.712C174.525 50.408 175.205 50.256 175.957 50.256ZM191.727 45.864H199.359C201.135 45.864 202.519 46.256 203.511 47.04C204.583 47.92 205.119 49.168 205.119 50.784C205.119 51.664 204.879 52.456 204.399 53.16C203.871 53.928 203.143 54.432 202.215 54.672V54.72C203.703 55.056 204.543 56.056 204.735 57.72L205.023 60.48C205.119 61.52 205.463 62.36 206.055 63H203.007C202.607 62.488 202.359 61.744 202.263 60.768L202.047 58.656C201.951 57.712 201.663 57.04 201.183 56.64C200.703 56.224 199.967 56.016 198.975 56.016H194.535V63H191.727V45.864ZM194.535 48.264V53.616H198.975C200.063 53.616 200.903 53.384 201.495 52.92C202.023 52.44 202.287 51.768 202.287 50.904C202.287 49.96 202.023 49.288 201.495 48.888C200.983 48.472 200.143 48.264 198.975 48.264H194.535ZM213.501 50.256C215.549 50.256 217.109 50.944 218.181 52.32C219.173 53.584 219.669 55.328 219.669 57.552H210.381C210.477 58.72 210.789 59.6 211.317 60.192C211.845 60.8 212.605 61.104 213.597 61.104C214.429 61.104 215.109 60.912 215.637 60.528C216.037 60.224 216.405 59.72 216.741 59.016H219.477C219.189 60.184 218.613 61.152 217.749 61.92C216.629 62.864 215.253 63.336 213.621 63.336C211.781 63.336 210.317 62.768 209.229 61.632C208.077 60.448 207.501 58.832 207.501 56.784C207.501 54.928 208.045 53.384 209.133 52.152C210.189 50.888 211.645 50.256 213.501 50.256ZM213.573 52.488C212.661 52.488 211.949 52.744 211.437 53.256C210.941 53.752 210.605 54.496 210.429 55.488H216.813C216.573 53.488 215.493 52.488 213.573 52.488ZM228.246 50.256C231.35 50.256 232.902 51.952 232.902 55.344V63H230.166V55.584C230.166 53.552 229.23 52.536 227.358 52.536C226.686 52.536 226.094 52.776 225.582 53.256C225.006 53.784 224.67 54.544 224.574 55.536V63H221.838V50.592H224.574V52.032C225.07 51.44 225.614 51 226.206 50.712C226.814 50.408 227.494 50.256 228.246 50.256ZM241.424 50.256C243.264 50.256 244.616 50.712 245.48 51.624C246.248 52.408 246.632 53.56 246.632 55.08V63H244.088V61.368C243.608 61.992 243.008 62.472 242.288 62.808C241.456 63.16 240.528 63.336 239.504 63.336C238.224 63.336 237.208 63.008 236.456 62.352C235.688 61.68 235.304 60.784 235.304 59.664C235.304 58.112 235.912 56.952 237.128 56.184C238.152 55.528 239.504 55.2 241.184 55.2L243.896 55.176V54.888C243.896 53.272 243.008 52.464 241.232 52.464C240.416 52.464 239.776 52.616 239.312 52.92C238.784 53.256 238.472 53.768 238.376 54.456H235.664C235.856 52.952 236.488 51.856 237.56 51.168C238.472 50.56 239.76 50.256 241.424 50.256ZM243.896 57.264L241.376 57.288C239.2 57.288 238.112 58.056 238.112 59.592C238.112 60.024 238.28 60.4 238.616 60.72C238.968 61.024 239.472 61.176 240.128 61.176C241.264 61.176 242.184 60.872 242.888 60.264C243.56 59.64 243.896 58.808 243.896 57.768V57.264ZM251.366 45.528C251.91 45.528 252.358 45.696 252.71 46.032C253.062 46.384 253.238 46.816 253.238 47.328C253.238 47.872 253.054 48.312 252.686 48.648C252.334 48.984 251.894 49.152 251.366 49.152C250.854 49.152 250.414 48.984 250.046 48.648C249.694 48.296 249.518 47.856 249.518 47.328C249.518 46.8 249.694 46.368 250.046 46.032C250.414 45.696 250.854 45.528 251.366 45.528ZM249.998 50.592H252.734V63H249.998V50.592ZM264.36 45.864H267.168V63H264.36V45.864ZM270.524 45.864H276.788C279.556 45.864 281.66 46.632 283.1 48.168C284.476 49.624 285.164 51.712 285.164 54.432C285.164 57.136 284.476 59.224 283.1 60.696C281.66 62.232 279.556 63 276.788 63H270.524V45.864ZM273.332 48.264V60.6H276.26C278.388 60.6 279.948 60.104 280.94 59.112C281.9 58.104 282.38 56.544 282.38 54.432C282.38 52.256 281.9 50.688 280.94 49.728C279.964 48.752 278.404 48.264 276.26 48.264H273.332Z" fill="#0D52A1" fill-opacity="0.18"/>
</svg>
