<svg width="41" height="40" viewBox="0 0 41 40" fill="none" xmlns="http://www.w3.org/2000/svg">
<ellipse cx="20.5" cy="20" rx="20.5" ry="20" fill="#0D52A1"/>
<path d="M27.8291 26.0781L25.2961 23.368C26.3242 22.1315 26.8868 20.5894 26.8868 18.9674C26.8868 15.1608 23.7883 12.0623 19.9788 12.0623C16.1722 12.0623 13.0737 15.1608 13.0737 18.9674C13.0737 22.7741 16.1722 25.8725 19.9788 25.8725C20.9755 25.8725 21.9378 25.664 22.8374 25.2528C23.1058 25.13 23.2229 24.8159 23.1001 24.5503C22.9773 24.2819 22.6632 24.1648 22.3976 24.2876C21.6351 24.6331 20.8213 24.8102 19.9788 24.8102C16.7576 24.8102 14.1361 22.1886 14.1361 18.9674C14.1361 15.7462 16.7576 13.1246 19.9788 13.1246C23.2001 13.1246 25.8216 15.7462 25.8216 18.9674C25.8216 20.4838 25.2419 21.9202 24.1938 23.0139C23.9911 23.2253 23.9968 23.5622 24.2081 23.765C24.2253 23.7793 24.2452 23.785 24.2624 23.7993C24.2767 23.8193 24.2852 23.845 24.3024 23.8649L27.0495 26.8035C27.1523 26.9148 27.2951 26.9719 27.4379 26.9719C27.5693 26.9719 27.6978 26.9234 27.8006 26.8292C28.0176 26.6293 28.029 26.2923 27.8291 26.0781Z" fill="white"/>
</svg>
