<svg width="308" height="84" viewBox="0 0 308 84" fill="none" xmlns="http://www.w3.org/2000/svg">
    <path d="M10.304 0.703999C13.0133 0.703999 15.1147 1.25867 16.608 2.368C18.208 3.56267 19.1253 5.408 19.36 7.904H15.648C15.328 6.496 14.7413 5.48267 13.888 4.864C13.0773 4.24533 11.8187 3.936 10.112 3.936C8.66133 3.936 7.56267 4.13867 6.816 4.544C5.87733 5.01333 5.408 5.80267 5.408 6.912C5.408 7.91467 5.94133 8.69333 7.008 9.248C7.52 9.52533 8.82133 9.99467 10.912 10.656C13.92 11.5733 15.9147 12.32 16.896 12.896C18.88 14.0693 19.872 15.712 19.872 17.824C19.872 19.872 19.072 21.4933 17.472 22.688C15.8507 23.8613 13.5893 24.448 10.688 24.448C7.872 24.448 5.67467 23.904 4.096 22.816C2.15467 21.472 1.10933 19.3493 0.96 16.448H4.672C4.928 18.1973 5.54667 19.4347 6.528 20.16C7.44533 20.8213 8.832 21.152 10.688 21.152C12.352 21.152 13.6747 20.8747 14.656 20.32C15.6373 19.7227 16.128 18.9653 16.128 18.048C16.128 16.832 15.4133 15.872 13.984 15.168C13.472 14.912 11.9893 14.4107 9.536 13.664C6.69867 12.768 4.94933 12.128 4.288 11.744C2.53867 10.6987 1.664 9.16267 1.664 7.136C1.664 5.088 2.51733 3.49867 4.224 2.368C5.80267 1.25867 7.82933 0.703999 10.304 0.703999ZM23.0838 1.152H39.5638V4.352H26.8278V10.688H38.7958V13.888H26.8278V20.8H40.1078V24H23.0838V1.152ZM43.615 1.152H60.095V4.352H47.359V10.688H59.327V13.888H47.359V20.8H60.639V24H43.615V1.152ZM78.5143 1.152H83.2503L73.2023 10.944L84.7543 24H79.6983L70.6743 13.408L67.8903 16.128V24H64.1463V1.152H67.8903V11.936L78.5143 1.152ZM95.8863 1.152H114.606V4.352H107.118V24H103.374V4.352H95.8863V1.152ZM117.334 1.152H127.51C129.878 1.152 131.723 1.67467 133.046 2.72C134.475 3.89333 135.19 5.55733 135.19 7.712C135.19 8.88533 134.87 9.94133 134.23 10.88C133.526 11.904 132.555 12.576 131.318 12.896V12.96C133.302 13.408 134.422 14.7413 134.678 16.96L135.062 20.64C135.19 22.0267 135.648 23.1467 136.438 24H132.374C131.84 23.3173 131.51 22.3253 131.382 21.024L131.094 18.208C130.966 16.9493 130.582 16.0533 129.942 15.52C129.302 14.9653 128.32 14.688 126.998 14.688H121.078V24H117.334V1.152ZM121.078 4.352V11.488H126.998C128.448 11.488 129.568 11.1787 130.358 10.56C131.062 9.92 131.414 9.024 131.414 7.872C131.414 6.61333 131.062 5.71733 130.358 5.184C129.675 4.62933 128.555 4.352 126.998 4.352H121.078ZM139.646 1.152H143.39V15.392C143.39 17.376 143.849 18.8373 144.766 19.776C145.662 20.7147 147.124 21.184 149.15 21.184C151.134 21.184 152.596 20.7147 153.534 19.776C154.452 18.7947 154.91 17.3333 154.91 15.392V1.152H158.654V15.328C158.654 18.2933 157.822 20.5653 156.158 22.144C154.494 23.68 152.158 24.448 149.15 24.448C146.121 24.448 143.796 23.6907 142.174 22.176C140.489 20.576 139.646 18.2933 139.646 15.328V1.152ZM161.386 1.152H180.106V4.352H172.618V24H168.874V4.352H161.386V1.152ZM182.834 1.152H186.578V10.688H198.162V1.152H201.906V24H198.162V13.888H186.578V24H182.834V1.152ZM217.053 1.152H232.637V4.352H220.797V10.688H231.965V13.888H220.797V24H217.053V1.152ZM235.678 1.152H245.854C248.222 1.152 250.067 1.67467 251.39 2.72C252.819 3.89333 253.534 5.55733 253.534 7.712C253.534 8.88533 253.214 9.94133 252.574 10.88C251.87 11.904 250.899 12.576 249.662 12.896V12.96C251.646 13.408 252.766 14.7413 253.022 16.96L253.406 20.64C253.534 22.0267 253.992 23.1467 254.782 24H250.718C250.184 23.3173 249.854 22.3253 249.726 21.024L249.438 18.208C249.31 16.9493 248.926 16.0533 248.286 15.52C247.646 14.9653 246.664 14.688 245.342 14.688H239.422V24H235.678V1.152ZM239.422 4.352V11.488H245.342C246.792 11.488 247.912 11.1787 248.702 10.56C249.406 9.92 249.758 9.024 249.758 7.872C249.758 6.61333 249.406 5.71733 248.702 5.184C248.019 4.62933 246.899 4.352 245.342 4.352H239.422ZM268.134 0.703999C271.633 0.703999 274.385 1.83467 276.39 4.096C278.31 6.22933 279.27 9.06667 279.27 12.608C279.27 16.1067 278.31 18.9333 276.39 21.088C274.385 23.328 271.633 24.448 268.134 24.448C264.635 24.448 261.883 23.3173 259.878 21.056C257.979 18.9013 257.03 16.0853 257.03 12.608C257.03 9.10933 257.979 6.28267 259.878 4.128C261.841 1.84533 264.593 0.703999 268.134 0.703999ZM268.134 4C265.787 4 263.953 4.8 262.63 6.4C261.393 7.91467 260.774 9.984 260.774 12.608C260.774 15.2107 261.393 17.2693 262.63 18.784C263.91 20.3627 265.745 21.152 268.134 21.152C270.502 21.152 272.326 20.3947 273.606 18.88C274.865 17.3653 275.494 15.2747 275.494 12.608C275.494 9.94133 274.865 7.82933 273.606 6.272C272.347 4.75733 270.523 4 268.134 4ZM282.803 1.152H287.187L294.963 19.072H295.091L302.835 1.152H307.219V24H303.475V8.256H303.347L296.627 24H293.395L286.675 8.256H286.547V24H282.803V1.152ZM2.24 60.152H17.824V63.352H5.984V69.688H17.152V72.888H5.984V83H2.24V60.152ZM27.361 60.152H31.617L40.353 83H36.353L34.273 77.272H24.705L22.625 83H18.625L27.361 60.152ZM25.825 74.2H33.153L29.569 64.184H29.441L25.825 74.2ZM52.5038 59.704C55.2131 59.704 57.4318 60.408 59.1597 61.816C60.8024 63.1387 61.8051 64.9733 62.1678 67.32H58.5198C58.1358 65.8267 57.4211 64.728 56.3758 64.024C55.3731 63.3413 54.0611 63 52.4398 63C50.0291 63 48.2264 63.8213 47.0318 65.464C45.9224 66.9147 45.3678 68.9627 45.3678 71.608C45.3678 74.296 45.9118 76.3653 46.9998 77.816C48.1944 79.3733 50.0398 80.152 52.5358 80.152C54.1571 80.152 55.4904 79.7573 56.5358 78.968C57.6238 78.1147 58.3918 76.8133 58.8398 75.064H62.4878C61.9758 77.752 60.7811 79.8427 58.9038 81.336C57.1544 82.744 55.0424 83.448 52.5678 83.448C48.7704 83.448 45.9331 82.2533 44.0558 79.864C42.4344 77.8373 41.6238 75.0853 41.6238 71.608C41.6238 68.1733 42.4664 65.4107 44.1518 63.32C46.0504 60.9093 48.8344 59.704 52.5038 59.704ZM64.2613 60.152H82.9813V63.352H75.4933V83H71.7493V63.352H64.2613V60.152ZM93.7728 59.704C96.4821 59.704 98.5834 60.2587 100.077 61.368C101.677 62.5627 102.594 64.408 102.829 66.904H99.1168C98.7968 65.496 98.2101 64.4827 97.3568 63.864C96.5461 63.2453 95.2874 62.936 93.5808 62.936C92.1301 62.936 91.0314 63.1387 90.2848 63.544C89.3461 64.0133 88.8768 64.8027 88.8768 65.912C88.8768 66.9147 89.4101 67.6933 90.4768 68.248C90.9888 68.5253 92.2901 68.9947 94.3808 69.656C97.3888 70.5733 99.3834 71.32 100.365 71.896C102.349 73.0693 103.341 74.712 103.341 76.824C103.341 78.872 102.541 80.4933 100.941 81.688C99.3194 82.8613 97.0581 83.448 94.1568 83.448C91.3408 83.448 89.1434 82.904 87.5648 81.816C85.6234 80.472 84.5781 78.3493 84.4288 75.448H88.1408C88.3968 77.1973 89.0154 78.4347 89.9968 79.16C90.9141 79.8213 92.3008 80.152 94.1568 80.152C95.8208 80.152 97.1434 79.8747 98.1248 79.32C99.1061 78.7227 99.5968 77.9653 99.5968 77.048C99.5968 75.832 98.8821 74.872 97.4528 74.168C96.9408 73.912 95.4581 73.4107 93.0048 72.664C90.1674 71.768 88.4181 71.128 87.7568 70.744C86.0074 69.6987 85.1328 68.1627 85.1328 66.136C85.1328 64.088 85.9861 62.4987 87.6927 61.368C89.2714 60.2587 91.2981 59.704 93.7728 59.704Z" fill="#0D52A1"/>
</svg>
