<svg width="200" height="200" viewBox="0 0 200 200" fill="none" xmlns="http://www.w3.org/2000/svg">
<path d="M99.6833 65.9773C80.5406 65.9773 64.9668 81.3762 64.9668 100.304C64.9668 119.233 80.5406 134.633 99.6833 134.633C101.546 134.633 103.515 134.442 105.894 134.03C109.448 133.389 111.81 130.018 111.16 126.516C110.589 123.443 107.899 121.212 104.764 121.212C104.359 121.212 103.951 121.251 103.568 121.323C102.017 121.597 100.788 121.724 99.6992 121.724C87.7539 121.724 78.0361 112.115 78.0361 100.304C78.0361 88.494 87.7392 78.8857 99.6665 78.8857C111.603 78.8857 121.313 88.494 121.313 100.304C121.313 101.455 121.185 102.664 120.905 104.119C120.256 107.62 122.618 110.992 126.171 111.631C126.563 111.702 126.961 111.738 127.356 111.738C130.521 111.738 133.22 109.506 133.769 106.442C134.187 104.205 134.382 102.255 134.382 100.305C134.391 91.1504 130.781 82.5338 124.219 76.043C117.658 69.552 108.944 65.9773 99.6833 65.9773Z" fill="#DAE3ED"/>
<path d="M183.296 84.5311C182.869 82.2994 181.14 80.5272 178.889 80.0153C170.704 78.1582 163.893 73.1932 159.712 66.0406C155.545 58.8998 154.597 50.5915 157.038 42.6599C157.728 40.4873 157.04 38.1217 155.29 36.6363C147.114 29.6595 137.802 24.3437 127.615 20.8385C126.999 20.6258 126.358 20.5183 125.706 20.5183C124.093 20.5183 122.545 21.1884 121.463 22.3496C115.752 28.4129 108.017 31.7521 99.6831 31.7521C91.3483 31.7521 83.6078 28.4073 77.8847 22.332C76.3461 20.7043 73.8788 20.0836 71.7167 20.8229C61.466 24.3721 52.1597 29.6933 44.0524 36.6409C42.3306 38.1237 41.6456 40.4731 42.3074 42.6317C44.7657 50.5703 43.823 58.8779 39.6516 66.0264C35.4902 73.1742 28.6848 78.137 20.477 80.0033C18.2229 80.5326 16.4933 82.3104 16.0708 84.5281C15.0497 89.8347 14.5322 95.1427 14.5322 100.304C14.5322 105.465 15.0497 110.773 16.07 116.078C16.4947 118.307 18.2229 120.079 20.4748 120.593C28.661 122.451 35.472 127.414 39.653 134.568C43.8228 141.715 44.7657 150.022 42.306 157.965C41.649 160.108 42.3298 162.46 44.0586 163.973C52.2323 170.947 61.538 176.262 71.7271 179.774C73.9665 180.533 76.3635 179.881 77.8705 178.274C83.5928 172.201 91.3326 168.857 99.6661 168.857C108 168.857 115.741 172.201 121.455 178.267C122.541 179.431 124.091 180.099 125.71 180.099C126.35 180.099 126.987 179.998 127.63 179.787C137.81 176.278 147.117 170.962 155.296 163.984C157.013 162.504 157.7 160.15 157.042 157.976C154.582 150.031 155.53 141.725 159.713 134.583C163.878 127.43 170.688 122.468 178.891 120.609C181.116 120.103 182.843 118.337 183.295 116.096C184.316 110.786 184.832 105.479 184.832 100.32C184.832 95.1507 184.316 89.8371 183.296 84.5311ZM142.299 154.273C137.216 158.21 131.608 161.413 125.603 163.808C118.438 157.53 109.274 154.086 99.6665 154.086C90.1106 154.086 80.948 157.53 73.7353 163.81C67.7306 161.415 62.1226 158.213 57.0378 154.276C58.9703 145.01 57.4068 135.438 52.5918 127.2C47.8167 119.004 40.2036 112.876 31.071 109.849C30.6059 106.656 30.3709 103.45 30.3709 100.304C30.3709 97.1703 30.6059 93.9657 31.071 90.7624C40.175 87.7567 47.7867 81.6298 52.5918 73.4088C57.3816 65.201 58.9445 55.6289 57.035 46.3346C62.1178 42.399 67.7256 39.1972 73.7331 36.8002C80.9248 43.0896 90.0882 46.5388 99.6663 46.5388C109.275 46.5388 118.438 43.0944 125.602 36.8162C131.608 39.2126 137.215 42.4144 142.298 46.35C140.382 55.6535 141.939 65.224 146.725 73.4242C151.5 81.6208 159.111 87.7491 168.245 90.7778C168.71 93.9783 168.945 97.1843 168.945 100.337C168.973 103.353 168.744 106.547 168.262 109.849C159.128 112.877 151.516 119.004 146.741 127.199C141.962 135.389 140.399 144.959 142.299 154.273Z" fill="#DAE3ED"/>
</svg>
